G04 #@! TF.GenerationSoftware,KiCad,Pcbnew,(5.1.0)-1*
G04 #@! TF.CreationDate,2020-05-20T17:07:32+01:00*
G04 #@! TF.ProjectId,SolarDice,536f6c61-7244-4696-9365-2e6b69636164,rev?*
G04 #@! TF.SameCoordinates,PX5faea10PY77e7cd0*
G04 #@! TF.FileFunction,Profile,NP*
%FSLAX46Y46*%
G04 Gerber Fmt 4.6, Leading zero omitted, Abs format (unit mm)*
G04 Created by KiCad (PCBNEW (5.1.0)-1) date 2020-05-20 17:07:32*
%MOMM*%
%LPD*%
G04 APERTURE LIST*
%ADD10C,0.100000*%
G04 APERTURE END LIST*
D10*
X15646821Y90075000D02*
X67878163Y90075000D01*
X67878163Y90075000D02*
X68250779Y90057680D01*
X68250779Y90057680D02*
X68612397Y90006830D01*
X68612397Y90006830D02*
X68961216Y89924119D01*
X68961216Y89924119D02*
X69295438Y89811212D01*
X69295438Y89811212D02*
X69613262Y89669778D01*
X69613262Y89669778D02*
X69912890Y89501482D01*
X69912890Y89501482D02*
X70192522Y89307993D01*
X70192522Y89307993D02*
X70450359Y89090978D01*
X70450359Y89090978D02*
X70684601Y88852102D01*
X70684601Y88852102D02*
X70893449Y88593035D01*
X70893449Y88593035D02*
X71075104Y88315442D01*
X71075104Y88315442D02*
X71227765Y88020990D01*
X71227765Y88020990D02*
X71349634Y87711347D01*
X71349634Y87711347D02*
X71438911Y87388181D01*
X71438911Y87388181D02*
X71493797Y87053157D01*
X71493797Y87053157D02*
X71512492Y86707943D01*
X71512492Y86707943D02*
X71512492Y33942057D01*
X71512492Y33942057D02*
X71493797Y33596843D01*
X71493797Y33596843D02*
X71438911Y33261819D01*
X71438911Y33261819D02*
X71349634Y32938652D01*
X71349634Y32938652D02*
X71227765Y32629010D01*
X71227765Y32629010D02*
X71075104Y32334558D01*
X71075104Y32334558D02*
X70893449Y32056965D01*
X70893449Y32056965D02*
X70684601Y31797898D01*
X70684601Y31797898D02*
X70450359Y31559022D01*
X70450359Y31559022D02*
X70192522Y31342007D01*
X70192522Y31342007D02*
X69912890Y31148518D01*
X69912890Y31148518D02*
X69613262Y30980222D01*
X69613262Y30980222D02*
X69295438Y30838788D01*
X69295438Y30838788D02*
X68961216Y30725881D01*
X68961216Y30725881D02*
X68612397Y30643170D01*
X68612397Y30643170D02*
X68250779Y30592320D01*
X68250779Y30592320D02*
X67878163Y30575000D01*
X67878163Y30575000D02*
X15646821Y30575000D01*
X15646821Y30575000D02*
X15274204Y30592320D01*
X15274204Y30592320D02*
X14912587Y30643170D01*
X14912587Y30643170D02*
X14563768Y30725881D01*
X14563768Y30725881D02*
X14229546Y30838788D01*
X14229546Y30838788D02*
X13911721Y30980222D01*
X13911721Y30980222D02*
X13612093Y31148518D01*
X13612093Y31148518D02*
X13332461Y31342007D01*
X13332461Y31342007D02*
X13074624Y31559022D01*
X13074624Y31559022D02*
X12840382Y31797898D01*
X12840382Y31797898D02*
X12631534Y32056965D01*
X12631534Y32056965D02*
X12449880Y32334558D01*
X12449880Y32334558D02*
X12297219Y32629010D01*
X12297219Y32629010D02*
X12175350Y32938652D01*
X12175350Y32938652D02*
X12086073Y33261819D01*
X12086073Y33261819D02*
X12031187Y33596843D01*
X12031187Y33596843D02*
X12012492Y33942057D01*
X12012492Y33942057D02*
X12012492Y86707943D01*
X12012492Y86707943D02*
X12031187Y87053157D01*
X12031187Y87053157D02*
X12086073Y87388181D01*
X12086073Y87388181D02*
X12175350Y87711347D01*
X12175350Y87711347D02*
X12297219Y88020990D01*
X12297219Y88020990D02*
X12449880Y88315442D01*
X12449880Y88315442D02*
X12631534Y88593035D01*
X12631534Y88593035D02*
X12840382Y88852102D01*
X12840382Y88852102D02*
X13074624Y89090978D01*
X13074624Y89090978D02*
X13332461Y89307993D01*
X13332461Y89307993D02*
X13612093Y89501482D01*
X13612093Y89501482D02*
X13911721Y89669778D01*
X13911721Y89669778D02*
X14229546Y89811212D01*
X14229546Y89811212D02*
X14563768Y89924119D01*
X14563768Y89924119D02*
X14912587Y90006830D01*
X14912587Y90006830D02*
X15274204Y90057680D01*
X15274204Y90057680D02*
X15646821Y90075000D01*
X15646821Y90075000D02*
X15646821Y90075000D01*
X15646821Y90075000D02*
X15646821Y90075000D01*
M02*
