G04 #@! TF.GenerationSoftware,KiCad,Pcbnew,(5.1.0)-1*
G04 #@! TF.CreationDate,2020-05-20T17:07:31+01:00*
G04 #@! TF.ProjectId,SolarDice,536f6c61-7244-4696-9365-2e6b69636164,rev?*
G04 #@! TF.SameCoordinates,PX5faea10PY77e7cd0*
G04 #@! TF.FileFunction,Soldermask,Bot*
G04 #@! TF.FilePolarity,Negative*
%FSLAX46Y46*%
G04 Gerber Fmt 4.6, Leading zero omitted, Abs format (unit mm)*
G04 Created by KiCad (PCBNEW (5.1.0)-1) date 2020-05-20 17:07:31*
%MOMM*%
%LPD*%
G04 APERTURE LIST*
%ADD10C,0.010000*%
%ADD11C,2.432000*%
%ADD12R,2.432000X2.432000*%
%ADD13O,8.400000X12.400000*%
%ADD14O,2.686000X1.974800*%
%ADD15R,2.686000X1.974800*%
%ADD16C,2.000200*%
%ADD17C,2.940000*%
%ADD18C,2.305000*%
%ADD19R,3.200000X2.000000*%
%ADD20O,3.200000X2.000000*%
G04 APERTURE END LIST*
D10*
G36*
X19226682Y60792157D02*
G01*
X19255506Y60864965D01*
X19321563Y60900354D01*
X19439958Y60906007D01*
X19625800Y60889604D01*
X19640343Y60887983D01*
X19844156Y60869380D01*
X19979831Y60875117D01*
X20062775Y60915786D01*
X20108394Y61001978D01*
X20132094Y61144285D01*
X20139868Y61231397D01*
X20149497Y61389048D01*
X20138314Y61491550D01*
X20091950Y61552996D01*
X19996038Y61587476D01*
X19836208Y61609084D01*
X19745903Y61617772D01*
X19555891Y61638526D01*
X19436533Y61664186D01*
X19373952Y61704497D01*
X19354274Y61769202D01*
X19363623Y61868047D01*
X19366321Y61884352D01*
X19390094Y61993251D01*
X19424329Y62038645D01*
X19488184Y62041247D01*
X19508510Y62038066D01*
X19604459Y62023511D01*
X19754617Y62002540D01*
X19929184Y61979295D01*
X19958191Y61975539D01*
X20131332Y61946927D01*
X20282043Y61910868D01*
X20381896Y61874381D01*
X20392108Y61868420D01*
X20440252Y61829644D01*
X20468791Y61777644D01*
X20482293Y61692016D01*
X20485327Y61552355D01*
X20484354Y61456441D01*
X20477541Y61260358D01*
X20464215Y61067566D01*
X20447117Y60916656D01*
X20445151Y60904429D01*
X20385391Y60686101D01*
X20292790Y60539553D01*
X20174976Y60470173D01*
X20087642Y60463625D01*
X19942734Y60468241D01*
X19766449Y60482897D01*
X19699261Y60490548D01*
X19525657Y60511157D01*
X19381617Y60527000D01*
X19289701Y60535647D01*
X19272250Y60536548D01*
X19234120Y60574642D01*
X19219982Y60674250D01*
X19226682Y60792157D01*
X19226682Y60792157D01*
G37*
X19226682Y60792157D02*
X19255506Y60864965D01*
X19321563Y60900354D01*
X19439958Y60906007D01*
X19625800Y60889604D01*
X19640343Y60887983D01*
X19844156Y60869380D01*
X19979831Y60875117D01*
X20062775Y60915786D01*
X20108394Y61001978D01*
X20132094Y61144285D01*
X20139868Y61231397D01*
X20149497Y61389048D01*
X20138314Y61491550D01*
X20091950Y61552996D01*
X19996038Y61587476D01*
X19836208Y61609084D01*
X19745903Y61617772D01*
X19555891Y61638526D01*
X19436533Y61664186D01*
X19373952Y61704497D01*
X19354274Y61769202D01*
X19363623Y61868047D01*
X19366321Y61884352D01*
X19390094Y61993251D01*
X19424329Y62038645D01*
X19488184Y62041247D01*
X19508510Y62038066D01*
X19604459Y62023511D01*
X19754617Y62002540D01*
X19929184Y61979295D01*
X19958191Y61975539D01*
X20131332Y61946927D01*
X20282043Y61910868D01*
X20381896Y61874381D01*
X20392108Y61868420D01*
X20440252Y61829644D01*
X20468791Y61777644D01*
X20482293Y61692016D01*
X20485327Y61552355D01*
X20484354Y61456441D01*
X20477541Y61260358D01*
X20464215Y61067566D01*
X20447117Y60916656D01*
X20445151Y60904429D01*
X20385391Y60686101D01*
X20292790Y60539553D01*
X20174976Y60470173D01*
X20087642Y60463625D01*
X19942734Y60468241D01*
X19766449Y60482897D01*
X19699261Y60490548D01*
X19525657Y60511157D01*
X19381617Y60527000D01*
X19289701Y60535647D01*
X19272250Y60536548D01*
X19234120Y60574642D01*
X19219982Y60674250D01*
X19226682Y60792157D01*
G36*
X19234733Y60142844D02*
G01*
X19283294Y60156609D01*
X19396149Y60176604D01*
X19553388Y60200213D01*
X19735104Y60224819D01*
X19921387Y60247807D01*
X20092328Y60266560D01*
X20228017Y60278462D01*
X20288250Y60281290D01*
X20359902Y60275686D01*
X20393853Y60241485D01*
X20404080Y60155978D01*
X20404667Y60092167D01*
X20401098Y59975058D01*
X20379834Y59919595D01*
X20325039Y59902778D01*
X20273510Y59901667D01*
X20142354Y59901667D01*
X20170723Y59637084D01*
X20192973Y59445980D01*
X20215220Y59324480D01*
X20244955Y59257851D01*
X20289669Y59231363D01*
X20356854Y59230283D01*
X20376658Y59232119D01*
X20462456Y59234853D01*
X20503136Y59205191D01*
X20519365Y59120905D01*
X20523075Y59074631D01*
X20524169Y58959631D01*
X20511415Y58883501D01*
X20505437Y58873548D01*
X20439914Y58850201D01*
X20332721Y58843827D01*
X20220954Y58852964D01*
X20141713Y58876152D01*
X20127796Y58888425D01*
X20078729Y58900876D01*
X20018808Y58860103D01*
X19921773Y58809972D01*
X19772752Y58775026D01*
X19766954Y58774361D01*
X19766954Y59149486D01*
X19811169Y59160570D01*
X19864540Y59185909D01*
X19887324Y59233012D01*
X19885877Y59325902D01*
X19876690Y59408192D01*
X19856769Y59558575D01*
X19836822Y59691263D01*
X19828936Y59736666D01*
X19799221Y59815830D01*
X19734741Y59831494D01*
X19700447Y59826268D01*
X19645050Y59812200D01*
X19615090Y59783681D01*
X19605829Y59721265D01*
X19612531Y59605508D01*
X19622042Y59504436D01*
X19643723Y59321341D01*
X19670321Y59209844D01*
X19709008Y59156905D01*
X19766954Y59149486D01*
X19766954Y58774361D01*
X19709694Y58767783D01*
X19573443Y58760767D01*
X19493676Y58773590D01*
X19443094Y58813874D01*
X19418751Y58849022D01*
X19394332Y58918967D01*
X19364910Y59049709D01*
X19333067Y59223109D01*
X19301380Y59421028D01*
X19272432Y59625327D01*
X19248800Y59817867D01*
X19233065Y59980509D01*
X19227808Y60095114D01*
X19234733Y60142844D01*
X19234733Y60142844D01*
G37*
X19234733Y60142844D02*
X19283294Y60156609D01*
X19396149Y60176604D01*
X19553388Y60200213D01*
X19735104Y60224819D01*
X19921387Y60247807D01*
X20092328Y60266560D01*
X20228017Y60278462D01*
X20288250Y60281290D01*
X20359902Y60275686D01*
X20393853Y60241485D01*
X20404080Y60155978D01*
X20404667Y60092167D01*
X20401098Y59975058D01*
X20379834Y59919595D01*
X20325039Y59902778D01*
X20273510Y59901667D01*
X20142354Y59901667D01*
X20170723Y59637084D01*
X20192973Y59445980D01*
X20215220Y59324480D01*
X20244955Y59257851D01*
X20289669Y59231363D01*
X20356854Y59230283D01*
X20376658Y59232119D01*
X20462456Y59234853D01*
X20503136Y59205191D01*
X20519365Y59120905D01*
X20523075Y59074631D01*
X20524169Y58959631D01*
X20511415Y58883501D01*
X20505437Y58873548D01*
X20439914Y58850201D01*
X20332721Y58843827D01*
X20220954Y58852964D01*
X20141713Y58876152D01*
X20127796Y58888425D01*
X20078729Y58900876D01*
X20018808Y58860103D01*
X19921773Y58809972D01*
X19772752Y58775026D01*
X19766954Y58774361D01*
X19766954Y59149486D01*
X19811169Y59160570D01*
X19864540Y59185909D01*
X19887324Y59233012D01*
X19885877Y59325902D01*
X19876690Y59408192D01*
X19856769Y59558575D01*
X19836822Y59691263D01*
X19828936Y59736666D01*
X19799221Y59815830D01*
X19734741Y59831494D01*
X19700447Y59826268D01*
X19645050Y59812200D01*
X19615090Y59783681D01*
X19605829Y59721265D01*
X19612531Y59605508D01*
X19622042Y59504436D01*
X19643723Y59321341D01*
X19670321Y59209844D01*
X19709008Y59156905D01*
X19766954Y59149486D01*
X19766954Y58774361D01*
X19709694Y58767783D01*
X19573443Y58760767D01*
X19493676Y58773590D01*
X19443094Y58813874D01*
X19418751Y58849022D01*
X19394332Y58918967D01*
X19364910Y59049709D01*
X19333067Y59223109D01*
X19301380Y59421028D01*
X19272432Y59625327D01*
X19248800Y59817867D01*
X19233065Y59980509D01*
X19227808Y60095114D01*
X19234733Y60142844D01*
G36*
X19520188Y58474560D02*
G01*
X19526442Y58487220D01*
X19578764Y58510620D01*
X19691948Y58546327D01*
X19847488Y58589773D01*
X20026881Y58636385D01*
X20211622Y58681595D01*
X20383205Y58720832D01*
X20523126Y58749525D01*
X20612881Y58763106D01*
X20635917Y58761229D01*
X20654640Y58702185D01*
X20676812Y58594839D01*
X20682459Y58561290D01*
X20709345Y58393155D01*
X20178827Y58254169D01*
X19976643Y58204011D01*
X19802944Y58166190D01*
X19674571Y58143994D01*
X19608362Y58140710D01*
X19604795Y58142076D01*
X19570627Y58196405D01*
X19539609Y58294278D01*
X19520033Y58399171D01*
X19520188Y58474560D01*
X19520188Y58474560D01*
G37*
X19520188Y58474560D02*
X19526442Y58487220D01*
X19578764Y58510620D01*
X19691948Y58546327D01*
X19847488Y58589773D01*
X20026881Y58636385D01*
X20211622Y58681595D01*
X20383205Y58720832D01*
X20523126Y58749525D01*
X20612881Y58763106D01*
X20635917Y58761229D01*
X20654640Y58702185D01*
X20676812Y58594839D01*
X20682459Y58561290D01*
X20709345Y58393155D01*
X20178827Y58254169D01*
X19976643Y58204011D01*
X19802944Y58166190D01*
X19674571Y58143994D01*
X19608362Y58140710D01*
X19604795Y58142076D01*
X19570627Y58196405D01*
X19539609Y58294278D01*
X19520033Y58399171D01*
X19520188Y58474560D01*
G36*
X19623223Y62632996D02*
G01*
X19659706Y62776168D01*
X19720196Y62954153D01*
X19797021Y63146874D01*
X19882510Y63334255D01*
X19968992Y63496218D01*
X20002460Y63549866D01*
X20092484Y63654720D01*
X20197242Y63705542D01*
X20331023Y63703022D01*
X20508112Y63647849D01*
X20658667Y63581503D01*
X20862015Y63479008D01*
X20994803Y63387568D01*
X21063718Y63289618D01*
X21075447Y63167596D01*
X21036676Y63003938D01*
X20958844Y62793099D01*
X20838361Y62513274D01*
X20724482Y62299138D01*
X20620677Y62156333D01*
X20530415Y62090505D01*
X20526306Y62089332D01*
X20425057Y62088858D01*
X20302389Y62120146D01*
X20290911Y62124749D01*
X20148163Y62184393D01*
X20212915Y62339366D01*
X20254058Y62442635D01*
X20276354Y62507940D01*
X20277667Y62515274D01*
X20311959Y62522839D01*
X20365968Y62513117D01*
X20418085Y62511999D01*
X20465588Y62548910D01*
X20520963Y62638285D01*
X20581921Y62762813D01*
X20642195Y62906510D01*
X20679636Y63025664D01*
X20686524Y63095466D01*
X20685962Y63097129D01*
X20632975Y63151039D01*
X20530538Y63211199D01*
X20410979Y63261938D01*
X20306629Y63287589D01*
X20291439Y63288334D01*
X20240886Y63253299D01*
X20178027Y63163490D01*
X20113281Y63041844D01*
X20057067Y62911302D01*
X20019803Y62794803D01*
X20011906Y62715286D01*
X20022580Y62696338D01*
X20053093Y62655419D01*
X20045434Y62577366D01*
X20025521Y62510786D01*
X19983385Y62405464D01*
X19943614Y62340136D01*
X19937155Y62334693D01*
X19866226Y62333947D01*
X19770701Y62379303D01*
X19679807Y62451503D01*
X19622769Y62531289D01*
X19618416Y62544715D01*
X19623223Y62632996D01*
X19623223Y62632996D01*
G37*
X19623223Y62632996D02*
X19659706Y62776168D01*
X19720196Y62954153D01*
X19797021Y63146874D01*
X19882510Y63334255D01*
X19968992Y63496218D01*
X20002460Y63549866D01*
X20092484Y63654720D01*
X20197242Y63705542D01*
X20331023Y63703022D01*
X20508112Y63647849D01*
X20658667Y63581503D01*
X20862015Y63479008D01*
X20994803Y63387568D01*
X21063718Y63289618D01*
X21075447Y63167596D01*
X21036676Y63003938D01*
X20958844Y62793099D01*
X20838361Y62513274D01*
X20724482Y62299138D01*
X20620677Y62156333D01*
X20530415Y62090505D01*
X20526306Y62089332D01*
X20425057Y62088858D01*
X20302389Y62120146D01*
X20290911Y62124749D01*
X20148163Y62184393D01*
X20212915Y62339366D01*
X20254058Y62442635D01*
X20276354Y62507940D01*
X20277667Y62515274D01*
X20311959Y62522839D01*
X20365968Y62513117D01*
X20418085Y62511999D01*
X20465588Y62548910D01*
X20520963Y62638285D01*
X20581921Y62762813D01*
X20642195Y62906510D01*
X20679636Y63025664D01*
X20686524Y63095466D01*
X20685962Y63097129D01*
X20632975Y63151039D01*
X20530538Y63211199D01*
X20410979Y63261938D01*
X20306629Y63287589D01*
X20291439Y63288334D01*
X20240886Y63253299D01*
X20178027Y63163490D01*
X20113281Y63041844D01*
X20057067Y62911302D01*
X20019803Y62794803D01*
X20011906Y62715286D01*
X20022580Y62696338D01*
X20053093Y62655419D01*
X20045434Y62577366D01*
X20025521Y62510786D01*
X19983385Y62405464D01*
X19943614Y62340136D01*
X19937155Y62334693D01*
X19866226Y62333947D01*
X19770701Y62379303D01*
X19679807Y62451503D01*
X19622769Y62531289D01*
X19618416Y62544715D01*
X19623223Y62632996D01*
G36*
X20970925Y64243130D02*
G01*
X21042341Y64342693D01*
X21141930Y64469192D01*
X21381250Y64769136D01*
X21654959Y64554037D01*
X21780614Y64454500D01*
X21875771Y64377619D01*
X21924856Y64336035D01*
X21928288Y64332219D01*
X21904119Y64298170D01*
X21840114Y64213415D01*
X21748467Y64094041D01*
X21714655Y64050334D01*
X21594508Y63898920D01*
X21511134Y63807123D01*
X21451779Y63765888D01*
X21403685Y63766164D01*
X21356979Y63796489D01*
X21329577Y63835401D01*
X21341510Y63890592D01*
X21399590Y63981281D01*
X21443069Y64039412D01*
X21523306Y64151552D01*
X21576674Y64239660D01*
X21590000Y64275035D01*
X21567035Y64268192D01*
X21507270Y64207118D01*
X21436170Y64120781D01*
X21338007Y64000096D01*
X21272983Y63940400D01*
X21225515Y63933442D01*
X21180020Y63970969D01*
X21171734Y63980728D01*
X21155758Y64031554D01*
X21186395Y64106649D01*
X21270223Y64222778D01*
X21346967Y64326560D01*
X21392285Y64401385D01*
X21397932Y64425846D01*
X21362375Y64409827D01*
X21301802Y64345729D01*
X21299275Y64342546D01*
X21183186Y64196066D01*
X21107219Y64106190D01*
X21058628Y64063386D01*
X21024670Y64058125D01*
X20992599Y64080876D01*
X20973869Y64099207D01*
X20943763Y64136960D01*
X20940423Y64179743D01*
X20970925Y64243130D01*
X20970925Y64243130D01*
G37*
X20970925Y64243130D02*
X21042341Y64342693D01*
X21141930Y64469192D01*
X21381250Y64769136D01*
X21654959Y64554037D01*
X21780614Y64454500D01*
X21875771Y64377619D01*
X21924856Y64336035D01*
X21928288Y64332219D01*
X21904119Y64298170D01*
X21840114Y64213415D01*
X21748467Y64094041D01*
X21714655Y64050334D01*
X21594508Y63898920D01*
X21511134Y63807123D01*
X21451779Y63765888D01*
X21403685Y63766164D01*
X21356979Y63796489D01*
X21329577Y63835401D01*
X21341510Y63890592D01*
X21399590Y63981281D01*
X21443069Y64039412D01*
X21523306Y64151552D01*
X21576674Y64239660D01*
X21590000Y64275035D01*
X21567035Y64268192D01*
X21507270Y64207118D01*
X21436170Y64120781D01*
X21338007Y64000096D01*
X21272983Y63940400D01*
X21225515Y63933442D01*
X21180020Y63970969D01*
X21171734Y63980728D01*
X21155758Y64031554D01*
X21186395Y64106649D01*
X21270223Y64222778D01*
X21346967Y64326560D01*
X21392285Y64401385D01*
X21397932Y64425846D01*
X21362375Y64409827D01*
X21301802Y64345729D01*
X21299275Y64342546D01*
X21183186Y64196066D01*
X21107219Y64106190D01*
X21058628Y64063386D01*
X21024670Y64058125D01*
X20992599Y64080876D01*
X20973869Y64099207D01*
X20943763Y64136960D01*
X20940423Y64179743D01*
X20970925Y64243130D01*
G36*
X20944719Y56281758D02*
G01*
X21148140Y56463687D01*
X21307153Y56586903D01*
X21435656Y56654081D01*
X21547550Y56667895D01*
X21656735Y56631020D01*
X21777110Y56546132D01*
X21874303Y56460649D01*
X22110877Y56224284D01*
X22277782Y56013831D01*
X22372479Y55832915D01*
X22394596Y55717449D01*
X22388852Y55643635D01*
X22364174Y55575335D01*
X22309806Y55497516D01*
X22214990Y55395146D01*
X22068970Y55253192D01*
X22048436Y55233675D01*
X21702014Y54904850D01*
X21582507Y55019346D01*
X21505488Y55103643D01*
X21464516Y55168947D01*
X21462500Y55178837D01*
X21491427Y55225971D01*
X21569259Y55314122D01*
X21681850Y55427795D01*
X21741348Y55484321D01*
X21875149Y55612775D01*
X21953883Y55700548D01*
X21987185Y55761570D01*
X21984691Y55809766D01*
X21977452Y55825612D01*
X21919821Y55908046D01*
X21829698Y56011982D01*
X21726690Y56117724D01*
X21630407Y56205573D01*
X21560454Y56255833D01*
X21544050Y56261000D01*
X21494459Y56233374D01*
X21401775Y56159659D01*
X21282803Y56053601D01*
X21233491Y56007000D01*
X21110266Y55892382D01*
X21008600Y55804653D01*
X20944626Y55757466D01*
X20933321Y55753000D01*
X20886382Y55782745D01*
X20811676Y55857253D01*
X20783148Y55890175D01*
X20668629Y56027349D01*
X20944719Y56281758D01*
X20944719Y56281758D01*
G37*
X20944719Y56281758D02*
X21148140Y56463687D01*
X21307153Y56586903D01*
X21435656Y56654081D01*
X21547550Y56667895D01*
X21656735Y56631020D01*
X21777110Y56546132D01*
X21874303Y56460649D01*
X22110877Y56224284D01*
X22277782Y56013831D01*
X22372479Y55832915D01*
X22394596Y55717449D01*
X22388852Y55643635D01*
X22364174Y55575335D01*
X22309806Y55497516D01*
X22214990Y55395146D01*
X22068970Y55253192D01*
X22048436Y55233675D01*
X21702014Y54904850D01*
X21582507Y55019346D01*
X21505488Y55103643D01*
X21464516Y55168947D01*
X21462500Y55178837D01*
X21491427Y55225971D01*
X21569259Y55314122D01*
X21681850Y55427795D01*
X21741348Y55484321D01*
X21875149Y55612775D01*
X21953883Y55700548D01*
X21987185Y55761570D01*
X21984691Y55809766D01*
X21977452Y55825612D01*
X21919821Y55908046D01*
X21829698Y56011982D01*
X21726690Y56117724D01*
X21630407Y56205573D01*
X21560454Y56255833D01*
X21544050Y56261000D01*
X21494459Y56233374D01*
X21401775Y56159659D01*
X21282803Y56053601D01*
X21233491Y56007000D01*
X21110266Y55892382D01*
X21008600Y55804653D01*
X20944626Y55757466D01*
X20933321Y55753000D01*
X20886382Y55782745D01*
X20811676Y55857253D01*
X20783148Y55890175D01*
X20668629Y56027349D01*
X20944719Y56281758D01*
G36*
X21586286Y64995628D02*
G01*
X21681200Y65006512D01*
X21752828Y64966387D01*
X21805581Y64928817D01*
X21856837Y64933750D01*
X21934055Y64987554D01*
X21969256Y65016569D01*
X22055374Y65092928D01*
X22084653Y65144845D01*
X22066170Y65201017D01*
X22040481Y65241765D01*
X21995873Y65321658D01*
X22004925Y65374168D01*
X22056670Y65427075D01*
X22102781Y65463911D01*
X22144622Y65471265D01*
X22199422Y65440982D01*
X22284412Y65364910D01*
X22374528Y65276656D01*
X22507785Y65138375D01*
X22580303Y65041543D01*
X22596717Y64973810D01*
X22561667Y64922828D01*
X22517812Y64895115D01*
X22434913Y64871773D01*
X22357396Y64913520D01*
X22346795Y64922878D01*
X22291818Y64965292D01*
X22245277Y64964618D01*
X22180650Y64913689D01*
X22130564Y64864436D01*
X22050188Y64780074D01*
X22023621Y64727852D01*
X22044245Y64680607D01*
X22076662Y64643190D01*
X22128159Y64578148D01*
X22124378Y64530367D01*
X22063222Y64462407D01*
X21970284Y64369470D01*
X21731728Y64608026D01*
X21596100Y64754628D01*
X21527177Y64857352D01*
X21519459Y64915084D01*
X21586286Y64995628D01*
X21586286Y64995628D01*
G37*
X21586286Y64995628D02*
X21681200Y65006512D01*
X21752828Y64966387D01*
X21805581Y64928817D01*
X21856837Y64933750D01*
X21934055Y64987554D01*
X21969256Y65016569D01*
X22055374Y65092928D01*
X22084653Y65144845D01*
X22066170Y65201017D01*
X22040481Y65241765D01*
X21995873Y65321658D01*
X22004925Y65374168D01*
X22056670Y65427075D01*
X22102781Y65463911D01*
X22144622Y65471265D01*
X22199422Y65440982D01*
X22284412Y65364910D01*
X22374528Y65276656D01*
X22507785Y65138375D01*
X22580303Y65041543D01*
X22596717Y64973810D01*
X22561667Y64922828D01*
X22517812Y64895115D01*
X22434913Y64871773D01*
X22357396Y64913520D01*
X22346795Y64922878D01*
X22291818Y64965292D01*
X22245277Y64964618D01*
X22180650Y64913689D01*
X22130564Y64864436D01*
X22050188Y64780074D01*
X22023621Y64727852D01*
X22044245Y64680607D01*
X22076662Y64643190D01*
X22128159Y64578148D01*
X22124378Y64530367D01*
X22063222Y64462407D01*
X21970284Y64369470D01*
X21731728Y64608026D01*
X21596100Y64754628D01*
X21527177Y64857352D01*
X21519459Y64915084D01*
X21586286Y64995628D01*
G36*
X22282373Y65559568D02*
G01*
X22326274Y65620074D01*
X22420789Y65700871D01*
X22575484Y65814729D01*
X22590848Y65825721D01*
X22741827Y65932230D01*
X22839849Y65994745D01*
X22900309Y66019234D01*
X22938606Y66011664D01*
X22970136Y65978001D01*
X22973173Y65973888D01*
X23006539Y65912417D01*
X22987491Y65861436D01*
X22919040Y65800412D01*
X22804712Y65708990D01*
X22938189Y65527489D01*
X23024794Y65404756D01*
X23062208Y65329350D01*
X23053815Y65282233D01*
X23002997Y65244364D01*
X22989783Y65237156D01*
X22925705Y65205748D01*
X22879770Y65204815D01*
X22831348Y65245811D01*
X22759812Y65340188D01*
X22730349Y65381196D01*
X22595436Y65569058D01*
X22471546Y65477462D01*
X22385334Y65421163D01*
X22336809Y65417041D01*
X22308143Y65448350D01*
X22279518Y65506583D01*
X22282373Y65559568D01*
X22282373Y65559568D01*
G37*
X22282373Y65559568D02*
X22326274Y65620074D01*
X22420789Y65700871D01*
X22575484Y65814729D01*
X22590848Y65825721D01*
X22741827Y65932230D01*
X22839849Y65994745D01*
X22900309Y66019234D01*
X22938606Y66011664D01*
X22970136Y65978001D01*
X22973173Y65973888D01*
X23006539Y65912417D01*
X22987491Y65861436D01*
X22919040Y65800412D01*
X22804712Y65708990D01*
X22938189Y65527489D01*
X23024794Y65404756D01*
X23062208Y65329350D01*
X23053815Y65282233D01*
X23002997Y65244364D01*
X22989783Y65237156D01*
X22925705Y65205748D01*
X22879770Y65204815D01*
X22831348Y65245811D01*
X22759812Y65340188D01*
X22730349Y65381196D01*
X22595436Y65569058D01*
X22471546Y65477462D01*
X22385334Y65421163D01*
X22336809Y65417041D01*
X22308143Y65448350D01*
X22279518Y65506583D01*
X22282373Y65559568D01*
G36*
X22168171Y54892604D02*
G01*
X22235369Y55038554D01*
X22335137Y55146854D01*
X22412477Y55184524D01*
X22485989Y55185500D01*
X22589877Y55153155D01*
X22738115Y55082006D01*
X22895064Y54995160D01*
X23078149Y54891155D01*
X23200328Y54825212D01*
X23273881Y54792815D01*
X23311085Y54789450D01*
X23324219Y54810603D01*
X23325667Y54836840D01*
X23290622Y54896732D01*
X23201175Y54975060D01*
X23080853Y55057165D01*
X22953186Y55128392D01*
X22841703Y55174084D01*
X22773373Y55180878D01*
X22688493Y55183746D01*
X22583032Y55222039D01*
X22489077Y55279453D01*
X22438712Y55339683D01*
X22436667Y55351978D01*
X22471134Y55432513D01*
X22553495Y55515105D01*
X22652190Y55572565D01*
X22705572Y55583667D01*
X22790494Y55560717D01*
X22925328Y55498952D01*
X23091258Y55408998D01*
X23269463Y55301481D01*
X23441126Y55187029D01*
X23547917Y55108009D01*
X23669085Y54974453D01*
X23708297Y54824390D01*
X23666497Y54652652D01*
X23640678Y54600481D01*
X23540487Y54476191D01*
X23415686Y54406579D01*
X23358423Y54398334D01*
X23299048Y54418410D01*
X23185521Y54472473D01*
X23036484Y54551273D01*
X22931798Y54610000D01*
X22774604Y54699028D01*
X22646345Y54769590D01*
X22563630Y54812669D01*
X22541991Y54821667D01*
X22523259Y54787420D01*
X22521334Y54762580D01*
X22556098Y54705034D01*
X22643702Y54629937D01*
X22759110Y54552964D01*
X22877286Y54489790D01*
X22973196Y54456092D01*
X23009933Y54456653D01*
X23077675Y54449940D01*
X23177445Y54409096D01*
X23278657Y54350881D01*
X23350725Y54292053D01*
X23367476Y54260750D01*
X23340899Y54210609D01*
X23283334Y54144334D01*
X23197401Y54082036D01*
X23097890Y54063425D01*
X22972797Y54091488D01*
X22810119Y54169212D01*
X22597851Y54299585D01*
X22560414Y54324250D01*
X22385954Y54441910D01*
X22270516Y54527203D01*
X22201458Y54592843D01*
X22166135Y54651545D01*
X22151904Y54716024D01*
X22149965Y54737000D01*
X22168171Y54892604D01*
X22168171Y54892604D01*
G37*
X22168171Y54892604D02*
X22235369Y55038554D01*
X22335137Y55146854D01*
X22412477Y55184524D01*
X22485989Y55185500D01*
X22589877Y55153155D01*
X22738115Y55082006D01*
X22895064Y54995160D01*
X23078149Y54891155D01*
X23200328Y54825212D01*
X23273881Y54792815D01*
X23311085Y54789450D01*
X23324219Y54810603D01*
X23325667Y54836840D01*
X23290622Y54896732D01*
X23201175Y54975060D01*
X23080853Y55057165D01*
X22953186Y55128392D01*
X22841703Y55174084D01*
X22773373Y55180878D01*
X22688493Y55183746D01*
X22583032Y55222039D01*
X22489077Y55279453D01*
X22438712Y55339683D01*
X22436667Y55351978D01*
X22471134Y55432513D01*
X22553495Y55515105D01*
X22652190Y55572565D01*
X22705572Y55583667D01*
X22790494Y55560717D01*
X22925328Y55498952D01*
X23091258Y55408998D01*
X23269463Y55301481D01*
X23441126Y55187029D01*
X23547917Y55108009D01*
X23669085Y54974453D01*
X23708297Y54824390D01*
X23666497Y54652652D01*
X23640678Y54600481D01*
X23540487Y54476191D01*
X23415686Y54406579D01*
X23358423Y54398334D01*
X23299048Y54418410D01*
X23185521Y54472473D01*
X23036484Y54551273D01*
X22931798Y54610000D01*
X22774604Y54699028D01*
X22646345Y54769590D01*
X22563630Y54812669D01*
X22541991Y54821667D01*
X22523259Y54787420D01*
X22521334Y54762580D01*
X22556098Y54705034D01*
X22643702Y54629937D01*
X22759110Y54552964D01*
X22877286Y54489790D01*
X22973196Y54456092D01*
X23009933Y54456653D01*
X23077675Y54449940D01*
X23177445Y54409096D01*
X23278657Y54350881D01*
X23350725Y54292053D01*
X23367476Y54260750D01*
X23340899Y54210609D01*
X23283334Y54144334D01*
X23197401Y54082036D01*
X23097890Y54063425D01*
X22972797Y54091488D01*
X22810119Y54169212D01*
X22597851Y54299585D01*
X22560414Y54324250D01*
X22385954Y54441910D01*
X22270516Y54527203D01*
X22201458Y54592843D01*
X22166135Y54651545D01*
X22151904Y54716024D01*
X22149965Y54737000D01*
X22168171Y54892604D01*
G36*
X24139809Y54223174D02*
G01*
X24183776Y54396490D01*
X24192588Y54427107D01*
X24237263Y54580936D01*
X24275723Y54678780D01*
X24325412Y54727757D01*
X24403776Y54734985D01*
X24528259Y54707581D01*
X24716307Y54652662D01*
X24733250Y54647694D01*
X24874562Y54599645D01*
X24976925Y54552069D01*
X25019453Y54514793D01*
X25019648Y54512958D01*
X25030264Y54484854D01*
X25051398Y54510689D01*
X25092278Y54532319D01*
X25182553Y54531841D01*
X25335705Y54508640D01*
X25410584Y54494257D01*
X25575032Y54459440D01*
X25673011Y54430049D01*
X25721512Y54397275D01*
X25737528Y54352309D01*
X25738667Y54324178D01*
X25733378Y54262058D01*
X25702903Y54235763D01*
X25625330Y54237127D01*
X25537584Y54249228D01*
X25410776Y54268199D01*
X25318841Y54282227D01*
X25296496Y54285785D01*
X25267953Y54251831D01*
X25237158Y54157351D01*
X25219184Y54070250D01*
X25194181Y53941250D01*
X25164929Y53875188D01*
X25115732Y53851111D01*
X25052694Y53848000D01*
X24972754Y53852182D01*
X24939907Y53880220D01*
X24941161Y53955356D01*
X24952114Y54027917D01*
X24976491Y54168932D01*
X25000943Y54292202D01*
X25005813Y54313667D01*
X25014745Y54382057D01*
X25001352Y54392369D01*
X24948387Y54389514D01*
X24840107Y54409237D01*
X24720230Y54441405D01*
X24590009Y54475679D01*
X24499110Y54489758D01*
X24468667Y54482123D01*
X24505830Y54452166D01*
X24601961Y54411349D01*
X24701500Y54378988D01*
X24841535Y54334521D01*
X24912116Y54296973D01*
X24926220Y54253939D01*
X24896825Y54193013D01*
X24896531Y54192548D01*
X24862066Y54162608D01*
X24799192Y54160287D01*
X24685993Y54186302D01*
X24634138Y54201145D01*
X24507368Y54234436D01*
X24417600Y54250767D01*
X24390066Y54249178D01*
X24391068Y54231376D01*
X24436483Y54207893D01*
X24539645Y54173324D01*
X24677116Y54132787D01*
X24813251Y54083864D01*
X24874364Y54031909D01*
X24869798Y53966772D01*
X24854871Y53939703D01*
X24800061Y53918955D01*
X24679677Y53930516D01*
X24490143Y53975093D01*
X24227880Y54053394D01*
X24144877Y54080166D01*
X24127164Y54120069D01*
X24139809Y54223174D01*
X24139809Y54223174D01*
G37*
X24139809Y54223174D02*
X24183776Y54396490D01*
X24192588Y54427107D01*
X24237263Y54580936D01*
X24275723Y54678780D01*
X24325412Y54727757D01*
X24403776Y54734985D01*
X24528259Y54707581D01*
X24716307Y54652662D01*
X24733250Y54647694D01*
X24874562Y54599645D01*
X24976925Y54552069D01*
X25019453Y54514793D01*
X25019648Y54512958D01*
X25030264Y54484854D01*
X25051398Y54510689D01*
X25092278Y54532319D01*
X25182553Y54531841D01*
X25335705Y54508640D01*
X25410584Y54494257D01*
X25575032Y54459440D01*
X25673011Y54430049D01*
X25721512Y54397275D01*
X25737528Y54352309D01*
X25738667Y54324178D01*
X25733378Y54262058D01*
X25702903Y54235763D01*
X25625330Y54237127D01*
X25537584Y54249228D01*
X25410776Y54268199D01*
X25318841Y54282227D01*
X25296496Y54285785D01*
X25267953Y54251831D01*
X25237158Y54157351D01*
X25219184Y54070250D01*
X25194181Y53941250D01*
X25164929Y53875188D01*
X25115732Y53851111D01*
X25052694Y53848000D01*
X24972754Y53852182D01*
X24939907Y53880220D01*
X24941161Y53955356D01*
X24952114Y54027917D01*
X24976491Y54168932D01*
X25000943Y54292202D01*
X25005813Y54313667D01*
X25014745Y54382057D01*
X25001352Y54392369D01*
X24948387Y54389514D01*
X24840107Y54409237D01*
X24720230Y54441405D01*
X24590009Y54475679D01*
X24499110Y54489758D01*
X24468667Y54482123D01*
X24505830Y54452166D01*
X24601961Y54411349D01*
X24701500Y54378988D01*
X24841535Y54334521D01*
X24912116Y54296973D01*
X24926220Y54253939D01*
X24896825Y54193013D01*
X24896531Y54192548D01*
X24862066Y54162608D01*
X24799192Y54160287D01*
X24685993Y54186302D01*
X24634138Y54201145D01*
X24507368Y54234436D01*
X24417600Y54250767D01*
X24390066Y54249178D01*
X24391068Y54231376D01*
X24436483Y54207893D01*
X24539645Y54173324D01*
X24677116Y54132787D01*
X24813251Y54083864D01*
X24874364Y54031909D01*
X24869798Y53966772D01*
X24854871Y53939703D01*
X24800061Y53918955D01*
X24679677Y53930516D01*
X24490143Y53975093D01*
X24227880Y54053394D01*
X24144877Y54080166D01*
X24127164Y54120069D01*
X24139809Y54223174D01*
G36*
X25754079Y53917409D02*
G01*
X25771242Y54080383D01*
X25780485Y54241675D01*
X25781000Y54277242D01*
X25781000Y54440667D01*
X26029709Y54440667D01*
X26265792Y54433178D01*
X26425395Y54409516D01*
X26515473Y54367888D01*
X26543000Y54308375D01*
X26533169Y54265853D01*
X26491592Y54241722D01*
X26400144Y54230905D01*
X26257250Y54228352D01*
X26103867Y54223965D01*
X26030209Y54211113D01*
X26031678Y54188933D01*
X26035000Y54186667D01*
X26113826Y54161868D01*
X26239128Y54146904D01*
X26299584Y54144982D01*
X26422672Y54139596D01*
X26482524Y54118496D01*
X26500299Y54072705D01*
X26500667Y54059667D01*
X26491174Y54012802D01*
X26450065Y53986151D01*
X26358396Y53973168D01*
X26236084Y53968225D01*
X26125197Y53962962D01*
X26081570Y53955463D01*
X26113567Y53947281D01*
X26119667Y53946641D01*
X26315897Y53924077D01*
X26441839Y53900375D01*
X26511787Y53870707D01*
X26540040Y53830250D01*
X26543000Y53803749D01*
X26536560Y53765480D01*
X26506866Y53741227D01*
X26438360Y53727834D01*
X26315483Y53722145D01*
X26135079Y53721000D01*
X25727159Y53721000D01*
X25754079Y53917409D01*
X25754079Y53917409D01*
G37*
X25754079Y53917409D02*
X25771242Y54080383D01*
X25780485Y54241675D01*
X25781000Y54277242D01*
X25781000Y54440667D01*
X26029709Y54440667D01*
X26265792Y54433178D01*
X26425395Y54409516D01*
X26515473Y54367888D01*
X26543000Y54308375D01*
X26533169Y54265853D01*
X26491592Y54241722D01*
X26400144Y54230905D01*
X26257250Y54228352D01*
X26103867Y54223965D01*
X26030209Y54211113D01*
X26031678Y54188933D01*
X26035000Y54186667D01*
X26113826Y54161868D01*
X26239128Y54146904D01*
X26299584Y54144982D01*
X26422672Y54139596D01*
X26482524Y54118496D01*
X26500299Y54072705D01*
X26500667Y54059667D01*
X26491174Y54012802D01*
X26450065Y53986151D01*
X26358396Y53973168D01*
X26236084Y53968225D01*
X26125197Y53962962D01*
X26081570Y53955463D01*
X26113567Y53947281D01*
X26119667Y53946641D01*
X26315897Y53924077D01*
X26441839Y53900375D01*
X26511787Y53870707D01*
X26540040Y53830250D01*
X26543000Y53803749D01*
X26536560Y53765480D01*
X26506866Y53741227D01*
X26438360Y53727834D01*
X26315483Y53722145D01*
X26135079Y53721000D01*
X25727159Y53721000D01*
X25754079Y53917409D01*
G36*
X26614985Y54341298D02*
G01*
X26617284Y54344921D01*
X26679848Y54382768D01*
X26801632Y54421010D01*
X26957398Y54454103D01*
X27121908Y54476502D01*
X27245789Y54483000D01*
X27367617Y54453199D01*
X27447221Y54377604D01*
X27466006Y54276930D01*
X27457755Y54246859D01*
X27409836Y54206321D01*
X27329630Y54187913D01*
X27254133Y54194417D01*
X27220336Y54228617D01*
X27220334Y54229000D01*
X27183960Y54257659D01*
X27096263Y54270369D01*
X26989380Y54265427D01*
X26906296Y54245638D01*
X26853765Y54186082D01*
X26842199Y54086574D01*
X26875605Y53983336D01*
X26877027Y53981058D01*
X26938858Y53951745D01*
X27044637Y53951203D01*
X27159961Y53976125D01*
X27241500Y54016108D01*
X27314577Y54050887D01*
X27379084Y54070756D01*
X27447136Y54075423D01*
X27471900Y54028447D01*
X27474334Y53972526D01*
X27448308Y53862575D01*
X27400250Y53811515D01*
X27292586Y53775436D01*
X27142862Y53750505D01*
X26979516Y53738377D01*
X26830986Y53740708D01*
X26725711Y53759155D01*
X26702740Y53770903D01*
X26657256Y53844890D01*
X26620937Y53971176D01*
X26598585Y54117509D01*
X26595000Y54251635D01*
X26614985Y54341298D01*
X26614985Y54341298D01*
G37*
X26614985Y54341298D02*
X26617284Y54344921D01*
X26679848Y54382768D01*
X26801632Y54421010D01*
X26957398Y54454103D01*
X27121908Y54476502D01*
X27245789Y54483000D01*
X27367617Y54453199D01*
X27447221Y54377604D01*
X27466006Y54276930D01*
X27457755Y54246859D01*
X27409836Y54206321D01*
X27329630Y54187913D01*
X27254133Y54194417D01*
X27220336Y54228617D01*
X27220334Y54229000D01*
X27183960Y54257659D01*
X27096263Y54270369D01*
X26989380Y54265427D01*
X26906296Y54245638D01*
X26853765Y54186082D01*
X26842199Y54086574D01*
X26875605Y53983336D01*
X26877027Y53981058D01*
X26938858Y53951745D01*
X27044637Y53951203D01*
X27159961Y53976125D01*
X27241500Y54016108D01*
X27314577Y54050887D01*
X27379084Y54070756D01*
X27447136Y54075423D01*
X27471900Y54028447D01*
X27474334Y53972526D01*
X27448308Y53862575D01*
X27400250Y53811515D01*
X27292586Y53775436D01*
X27142862Y53750505D01*
X26979516Y53738377D01*
X26830986Y53740708D01*
X26725711Y53759155D01*
X26702740Y53770903D01*
X26657256Y53844890D01*
X26620937Y53971176D01*
X26598585Y54117509D01*
X26595000Y54251635D01*
X26614985Y54341298D01*
G36*
X27595884Y54040043D02*
G01*
X27690955Y54075475D01*
X27780675Y54103177D01*
X27805346Y54149764D01*
X27796766Y54197183D01*
X27771612Y54305419D01*
X27746278Y54437864D01*
X27744993Y54445458D01*
X27734044Y54547912D01*
X27757260Y54596424D01*
X27828934Y54619354D01*
X27833019Y54620142D01*
X27923639Y54620976D01*
X27962413Y54594184D01*
X27982034Y54526051D01*
X28012562Y54411736D01*
X28024972Y54363746D01*
X28057765Y54251788D01*
X28093663Y54203543D01*
X28154317Y54200116D01*
X28201684Y54209521D01*
X28323481Y54209008D01*
X28392211Y54146397D01*
X28405019Y54079939D01*
X28367144Y54051115D01*
X28265026Y54009721D01*
X28116837Y53962586D01*
X28027567Y53938065D01*
X27823527Y53888807D01*
X27687124Y53867917D01*
X27605906Y53876303D01*
X27567418Y53914873D01*
X27559000Y53972207D01*
X27595884Y54040043D01*
X27595884Y54040043D01*
G37*
X27595884Y54040043D02*
X27690955Y54075475D01*
X27780675Y54103177D01*
X27805346Y54149764D01*
X27796766Y54197183D01*
X27771612Y54305419D01*
X27746278Y54437864D01*
X27744993Y54445458D01*
X27734044Y54547912D01*
X27757260Y54596424D01*
X27828934Y54619354D01*
X27833019Y54620142D01*
X27923639Y54620976D01*
X27962413Y54594184D01*
X27982034Y54526051D01*
X28012562Y54411736D01*
X28024972Y54363746D01*
X28057765Y54251788D01*
X28093663Y54203543D01*
X28154317Y54200116D01*
X28201684Y54209521D01*
X28323481Y54209008D01*
X28392211Y54146397D01*
X28405019Y54079939D01*
X28367144Y54051115D01*
X28265026Y54009721D01*
X28116837Y53962586D01*
X28027567Y53938065D01*
X27823527Y53888807D01*
X27687124Y53867917D01*
X27605906Y53876303D01*
X27567418Y53914873D01*
X27559000Y53972207D01*
X27595884Y54040043D01*
G36*
X28269180Y54741805D02*
G01*
X28330973Y54775355D01*
X28395084Y54798595D01*
X28469605Y54806029D01*
X28490334Y54761020D01*
X28520538Y54704742D01*
X28612482Y54702854D01*
X28720411Y54735952D01*
X28807735Y54799215D01*
X28829000Y54861463D01*
X28860870Y54940335D01*
X28934026Y55001370D01*
X29014784Y55020773D01*
X29041542Y55011626D01*
X29071401Y54954825D01*
X29083000Y54861502D01*
X29094272Y54773399D01*
X29121192Y54737000D01*
X29155856Y54701843D01*
X29199057Y54618582D01*
X29236108Y54520532D01*
X29252322Y54441007D01*
X29252334Y54439533D01*
X29223242Y54389554D01*
X29199417Y54367830D01*
X29130546Y54329838D01*
X29010192Y54276028D01*
X28863809Y54216373D01*
X28716849Y54160845D01*
X28639646Y54134647D01*
X28639646Y54368099D01*
X28691417Y54376968D01*
X28787652Y54414253D01*
X28879343Y54448241D01*
X28960746Y54498515D01*
X28970502Y54548603D01*
X28943631Y54582735D01*
X28887232Y54578713D01*
X28798572Y54545359D01*
X28698708Y54505212D01*
X28638560Y54483996D01*
X28633330Y54483000D01*
X28619380Y54448161D01*
X28617334Y54414971D01*
X28639646Y54368099D01*
X28639646Y54134647D01*
X28594765Y54119416D01*
X28523012Y54102058D01*
X28520924Y54102000D01*
X28482743Y54138687D01*
X28430292Y54233017D01*
X28372853Y54361397D01*
X28319710Y54500235D01*
X28280146Y54625935D01*
X28263444Y54714906D01*
X28269180Y54741805D01*
X28269180Y54741805D01*
G37*
X28269180Y54741805D02*
X28330973Y54775355D01*
X28395084Y54798595D01*
X28469605Y54806029D01*
X28490334Y54761020D01*
X28520538Y54704742D01*
X28612482Y54702854D01*
X28720411Y54735952D01*
X28807735Y54799215D01*
X28829000Y54861463D01*
X28860870Y54940335D01*
X28934026Y55001370D01*
X29014784Y55020773D01*
X29041542Y55011626D01*
X29071401Y54954825D01*
X29083000Y54861502D01*
X29094272Y54773399D01*
X29121192Y54737000D01*
X29155856Y54701843D01*
X29199057Y54618582D01*
X29236108Y54520532D01*
X29252322Y54441007D01*
X29252334Y54439533D01*
X29223242Y54389554D01*
X29199417Y54367830D01*
X29130546Y54329838D01*
X29010192Y54276028D01*
X28863809Y54216373D01*
X28716849Y54160845D01*
X28639646Y54134647D01*
X28639646Y54368099D01*
X28691417Y54376968D01*
X28787652Y54414253D01*
X28879343Y54448241D01*
X28960746Y54498515D01*
X28970502Y54548603D01*
X28943631Y54582735D01*
X28887232Y54578713D01*
X28798572Y54545359D01*
X28698708Y54505212D01*
X28638560Y54483996D01*
X28633330Y54483000D01*
X28619380Y54448161D01*
X28617334Y54414971D01*
X28639646Y54368099D01*
X28639646Y54134647D01*
X28594765Y54119416D01*
X28523012Y54102058D01*
X28520924Y54102000D01*
X28482743Y54138687D01*
X28430292Y54233017D01*
X28372853Y54361397D01*
X28319710Y54500235D01*
X28280146Y54625935D01*
X28263444Y54714906D01*
X28269180Y54741805D01*
G36*
X29116399Y55111854D02*
G01*
X29146500Y55135962D01*
X29219653Y55185321D01*
X29255041Y55201320D01*
X29285066Y55167971D01*
X29341358Y55080975D01*
X29411649Y54962072D01*
X29483671Y54833005D01*
X29545157Y54715514D01*
X29583840Y54631343D01*
X29591000Y54605910D01*
X29558111Y54560565D01*
X29505459Y54524865D01*
X29426139Y54496177D01*
X29388986Y54498201D01*
X29355279Y54542497D01*
X29294924Y54641716D01*
X29220168Y54775581D01*
X29209944Y54794634D01*
X29135276Y54936965D01*
X29097211Y55024286D01*
X29092126Y55076086D01*
X29116399Y55111854D01*
X29116399Y55111854D01*
G37*
X29116399Y55111854D02*
X29146500Y55135962D01*
X29219653Y55185321D01*
X29255041Y55201320D01*
X29285066Y55167971D01*
X29341358Y55080975D01*
X29411649Y54962072D01*
X29483671Y54833005D01*
X29545157Y54715514D01*
X29583840Y54631343D01*
X29591000Y54605910D01*
X29558111Y54560565D01*
X29505459Y54524865D01*
X29426139Y54496177D01*
X29388986Y54498201D01*
X29355279Y54542497D01*
X29294924Y54641716D01*
X29220168Y54775581D01*
X29209944Y54794634D01*
X29135276Y54936965D01*
X29097211Y55024286D01*
X29092126Y55076086D01*
X29116399Y55111854D01*
G36*
X29405228Y55209318D02*
G01*
X29434030Y55258672D01*
X29517571Y55350137D01*
X29642141Y55447373D01*
X29782662Y55534942D01*
X29914059Y55597404D01*
X30011256Y55619324D01*
X30018693Y55618610D01*
X30114529Y55575928D01*
X30157242Y55531889D01*
X30177094Y55463477D01*
X30127158Y55401626D01*
X30119232Y55395498D01*
X30033656Y55353840D01*
X29978764Y55352163D01*
X29897701Y55345716D01*
X29798155Y55297380D01*
X29713151Y55228334D01*
X29675710Y55159758D01*
X29675667Y55157767D01*
X29705079Y55076806D01*
X29751880Y55019817D01*
X29808549Y54978826D01*
X29862803Y54982944D01*
X29947648Y55035801D01*
X29956933Y55042377D01*
X30054195Y55127373D01*
X30120221Y55213090D01*
X30124137Y55221204D01*
X30188632Y55296523D01*
X30266458Y55306130D01*
X30328162Y55253245D01*
X30344746Y55197085D01*
X30334897Y55108838D01*
X30273306Y55021836D01*
X30198222Y54954250D01*
X30019007Y54823383D01*
X29861003Y54740395D01*
X29737227Y54711028D01*
X29678668Y54724977D01*
X29619393Y54783196D01*
X29539981Y54887140D01*
X29490252Y54962433D01*
X29421641Y55078650D01*
X29395026Y55151849D01*
X29405228Y55209318D01*
X29405228Y55209318D01*
G37*
X29405228Y55209318D02*
X29434030Y55258672D01*
X29517571Y55350137D01*
X29642141Y55447373D01*
X29782662Y55534942D01*
X29914059Y55597404D01*
X30011256Y55619324D01*
X30018693Y55618610D01*
X30114529Y55575928D01*
X30157242Y55531889D01*
X30177094Y55463477D01*
X30127158Y55401626D01*
X30119232Y55395498D01*
X30033656Y55353840D01*
X29978764Y55352163D01*
X29897701Y55345716D01*
X29798155Y55297380D01*
X29713151Y55228334D01*
X29675710Y55159758D01*
X29675667Y55157767D01*
X29705079Y55076806D01*
X29751880Y55019817D01*
X29808549Y54978826D01*
X29862803Y54982944D01*
X29947648Y55035801D01*
X29956933Y55042377D01*
X30054195Y55127373D01*
X30120221Y55213090D01*
X30124137Y55221204D01*
X30188632Y55296523D01*
X30266458Y55306130D01*
X30328162Y55253245D01*
X30344746Y55197085D01*
X30334897Y55108838D01*
X30273306Y55021836D01*
X30198222Y54954250D01*
X30019007Y54823383D01*
X29861003Y54740395D01*
X29737227Y54711028D01*
X29678668Y54724977D01*
X29619393Y54783196D01*
X29539981Y54887140D01*
X29490252Y54962433D01*
X29421641Y55078650D01*
X29395026Y55151849D01*
X29405228Y55209318D01*
G36*
X30364513Y55974464D02*
G01*
X30452250Y56095615D01*
X30601503Y56255484D01*
X30609831Y56263831D01*
X30743559Y56378970D01*
X30853119Y56424523D01*
X30955355Y56404975D01*
X31011097Y56370657D01*
X31065730Y56324087D01*
X31062770Y56282722D01*
X31011276Y56220997D01*
X30936497Y56161924D01*
X30879115Y56150480D01*
X30820964Y56134541D01*
X30740039Y56073821D01*
X30662100Y55992913D01*
X30612904Y55916411D01*
X30607000Y55890668D01*
X30638431Y55832669D01*
X30700420Y55777034D01*
X30766425Y55739658D01*
X30820847Y55747960D01*
X30895697Y55809296D01*
X30913177Y55825930D01*
X30984997Y55910841D01*
X31014626Y55979211D01*
X31013111Y55990820D01*
X31026399Y56054178D01*
X31074728Y56114699D01*
X31146369Y56162316D01*
X31205793Y56145742D01*
X31220039Y56134659D01*
X31276084Y56054352D01*
X31266473Y55954332D01*
X31188464Y55826961D01*
X31057942Y55683058D01*
X30939902Y55573608D01*
X30836856Y55493242D01*
X30768765Y55457285D01*
X30763082Y55456667D01*
X30688139Y55485542D01*
X30583264Y55558356D01*
X30473193Y55654396D01*
X30382660Y55752947D01*
X30348374Y55803978D01*
X30331988Y55880946D01*
X30364513Y55974464D01*
X30364513Y55974464D01*
G37*
X30364513Y55974464D02*
X30452250Y56095615D01*
X30601503Y56255484D01*
X30609831Y56263831D01*
X30743559Y56378970D01*
X30853119Y56424523D01*
X30955355Y56404975D01*
X31011097Y56370657D01*
X31065730Y56324087D01*
X31062770Y56282722D01*
X31011276Y56220997D01*
X30936497Y56161924D01*
X30879115Y56150480D01*
X30820964Y56134541D01*
X30740039Y56073821D01*
X30662100Y55992913D01*
X30612904Y55916411D01*
X30607000Y55890668D01*
X30638431Y55832669D01*
X30700420Y55777034D01*
X30766425Y55739658D01*
X30820847Y55747960D01*
X30895697Y55809296D01*
X30913177Y55825930D01*
X30984997Y55910841D01*
X31014626Y55979211D01*
X31013111Y55990820D01*
X31026399Y56054178D01*
X31074728Y56114699D01*
X31146369Y56162316D01*
X31205793Y56145742D01*
X31220039Y56134659D01*
X31276084Y56054352D01*
X31266473Y55954332D01*
X31188464Y55826961D01*
X31057942Y55683058D01*
X30939902Y55573608D01*
X30836856Y55493242D01*
X30768765Y55457285D01*
X30763082Y55456667D01*
X30688139Y55485542D01*
X30583264Y55558356D01*
X30473193Y55654396D01*
X30382660Y55752947D01*
X30348374Y55803978D01*
X30331988Y55880946D01*
X30364513Y55974464D01*
G36*
X19817625Y57726218D02*
G01*
X19877003Y57818451D01*
X19992115Y57912104D01*
X20174442Y58018873D01*
X20207882Y58036524D01*
X20415454Y58124947D01*
X20597365Y58163603D01*
X20737469Y58149728D01*
X20771982Y58133020D01*
X20815727Y58083324D01*
X20887191Y57979848D01*
X20972712Y57842679D01*
X20994232Y57806257D01*
X21166667Y57511177D01*
X21166667Y59129755D01*
X21167359Y59490547D01*
X21169331Y59823358D01*
X21172429Y60119023D01*
X21176496Y60368375D01*
X21181378Y60562250D01*
X21186918Y60691481D01*
X21192961Y60746903D01*
X21194118Y60748334D01*
X21238378Y60758684D01*
X21358496Y60788691D01*
X21548366Y60836789D01*
X21801882Y60901414D01*
X22112938Y60980999D01*
X22475428Y61073980D01*
X22883246Y61178790D01*
X23330287Y61293865D01*
X23810445Y61417640D01*
X24317613Y61548547D01*
X24602914Y61622260D01*
X25121980Y61756088D01*
X25617254Y61883148D01*
X26082646Y62001913D01*
X26512066Y62110859D01*
X26899426Y62208463D01*
X27238634Y62293199D01*
X27523602Y62363543D01*
X27748240Y62417970D01*
X27906459Y62454956D01*
X27992167Y62472976D01*
X28006187Y62474258D01*
X27994117Y62432073D01*
X27949423Y62323186D01*
X27876386Y62157097D01*
X27779284Y61943306D01*
X27662398Y61691311D01*
X27530006Y61410613D01*
X27475901Y61297099D01*
X27338416Y61008500D01*
X27214122Y60745701D01*
X27107379Y60518073D01*
X27022549Y60334989D01*
X26963994Y60205823D01*
X26936074Y60139948D01*
X26934427Y60133438D01*
X26974325Y60147746D01*
X27085203Y60191945D01*
X27259989Y60263113D01*
X27491612Y60358329D01*
X27773001Y60474672D01*
X28097086Y60609221D01*
X28456794Y60759055D01*
X28845055Y60921254D01*
X29104167Y61029742D01*
X29510008Y61199564D01*
X29894262Y61359875D01*
X30249501Y61507609D01*
X30568298Y61639701D01*
X30843224Y61753082D01*
X31066852Y61844688D01*
X31231756Y61911452D01*
X31330506Y61950307D01*
X31354939Y61958955D01*
X31444962Y61952971D01*
X31492522Y61897833D01*
X31528497Y61824698D01*
X31538334Y61796773D01*
X31503445Y61772288D01*
X31402164Y61705661D01*
X31239563Y61600143D01*
X31020716Y61458987D01*
X30750697Y61285449D01*
X30434581Y61082779D01*
X30077440Y60854232D01*
X29684350Y60603061D01*
X29260384Y60332518D01*
X28810615Y60045857D01*
X28361585Y59759990D01*
X27890335Y59460326D01*
X27438729Y59173513D01*
X27011976Y58902840D01*
X26615284Y58651594D01*
X26253862Y58423061D01*
X25932920Y58220530D01*
X25657665Y58047287D01*
X25433306Y57906619D01*
X25265053Y57801814D01*
X25158114Y57736160D01*
X25118200Y57713097D01*
X25073597Y57708657D01*
X25075152Y57759696D01*
X25083859Y57789180D01*
X25118222Y57902243D01*
X25168326Y58073699D01*
X25231009Y58292164D01*
X25303108Y58546257D01*
X25381461Y58824595D01*
X25462907Y59115796D01*
X25544283Y59408477D01*
X25622427Y59691255D01*
X25694177Y59952749D01*
X25756371Y60181575D01*
X25805847Y60366352D01*
X25839444Y60495697D01*
X25853998Y60558228D01*
X25854215Y60562229D01*
X25818975Y60540466D01*
X25721478Y60474865D01*
X25568712Y60370313D01*
X25367662Y60231695D01*
X25125316Y60063894D01*
X24848661Y59871797D01*
X24544682Y59660288D01*
X24220368Y59434253D01*
X23882705Y59198576D01*
X23538679Y58958143D01*
X23195277Y58717838D01*
X22859486Y58482546D01*
X22538293Y58257153D01*
X22238685Y58046543D01*
X21967648Y57855602D01*
X21732169Y57689215D01*
X21539235Y57552266D01*
X21395832Y57449640D01*
X21308948Y57386223D01*
X21285812Y57368081D01*
X21278077Y57313928D01*
X21293005Y57210467D01*
X21304421Y57163283D01*
X21329972Y57015835D01*
X21309924Y56899499D01*
X21234621Y56799520D01*
X21094403Y56701144D01*
X20952216Y56625214D01*
X20730011Y56526361D01*
X20560113Y56481405D01*
X20555468Y56481679D01*
X20555468Y56896000D01*
X20642870Y56916895D01*
X20757746Y56967198D01*
X20863002Y57028335D01*
X20919522Y57078290D01*
X20927557Y57145170D01*
X20892316Y57261588D01*
X20811101Y57435133D01*
X20755125Y57540718D01*
X20667715Y57675577D01*
X20589813Y57736685D01*
X20556689Y57742509D01*
X20465278Y57721879D01*
X20355862Y57671496D01*
X20257384Y57608228D01*
X20198790Y57548942D01*
X20193000Y57530566D01*
X20212933Y57454172D01*
X20264508Y57337686D01*
X20335395Y57202698D01*
X20413261Y57070796D01*
X20485773Y56963571D01*
X20540599Y56902613D01*
X20555468Y56896000D01*
X20555468Y56481679D01*
X20430624Y56489052D01*
X20329644Y56548009D01*
X20320775Y56556559D01*
X20256131Y56642348D01*
X20172179Y56782824D01*
X20078708Y56957828D01*
X19985509Y57147203D01*
X19902371Y57330791D01*
X19839086Y57488432D01*
X19805442Y57599969D01*
X19802498Y57623716D01*
X19817625Y57726218D01*
X19817625Y57726218D01*
G37*
X19817625Y57726218D02*
X19877003Y57818451D01*
X19992115Y57912104D01*
X20174442Y58018873D01*
X20207882Y58036524D01*
X20415454Y58124947D01*
X20597365Y58163603D01*
X20737469Y58149728D01*
X20771982Y58133020D01*
X20815727Y58083324D01*
X20887191Y57979848D01*
X20972712Y57842679D01*
X20994232Y57806257D01*
X21166667Y57511177D01*
X21166667Y59129755D01*
X21167359Y59490547D01*
X21169331Y59823358D01*
X21172429Y60119023D01*
X21176496Y60368375D01*
X21181378Y60562250D01*
X21186918Y60691481D01*
X21192961Y60746903D01*
X21194118Y60748334D01*
X21238378Y60758684D01*
X21358496Y60788691D01*
X21548366Y60836789D01*
X21801882Y60901414D01*
X22112938Y60980999D01*
X22475428Y61073980D01*
X22883246Y61178790D01*
X23330287Y61293865D01*
X23810445Y61417640D01*
X24317613Y61548547D01*
X24602914Y61622260D01*
X25121980Y61756088D01*
X25617254Y61883148D01*
X26082646Y62001913D01*
X26512066Y62110859D01*
X26899426Y62208463D01*
X27238634Y62293199D01*
X27523602Y62363543D01*
X27748240Y62417970D01*
X27906459Y62454956D01*
X27992167Y62472976D01*
X28006187Y62474258D01*
X27994117Y62432073D01*
X27949423Y62323186D01*
X27876386Y62157097D01*
X27779284Y61943306D01*
X27662398Y61691311D01*
X27530006Y61410613D01*
X27475901Y61297099D01*
X27338416Y61008500D01*
X27214122Y60745701D01*
X27107379Y60518073D01*
X27022549Y60334989D01*
X26963994Y60205823D01*
X26936074Y60139948D01*
X26934427Y60133438D01*
X26974325Y60147746D01*
X27085203Y60191945D01*
X27259989Y60263113D01*
X27491612Y60358329D01*
X27773001Y60474672D01*
X28097086Y60609221D01*
X28456794Y60759055D01*
X28845055Y60921254D01*
X29104167Y61029742D01*
X29510008Y61199564D01*
X29894262Y61359875D01*
X30249501Y61507609D01*
X30568298Y61639701D01*
X30843224Y61753082D01*
X31066852Y61844688D01*
X31231756Y61911452D01*
X31330506Y61950307D01*
X31354939Y61958955D01*
X31444962Y61952971D01*
X31492522Y61897833D01*
X31528497Y61824698D01*
X31538334Y61796773D01*
X31503445Y61772288D01*
X31402164Y61705661D01*
X31239563Y61600143D01*
X31020716Y61458987D01*
X30750697Y61285449D01*
X30434581Y61082779D01*
X30077440Y60854232D01*
X29684350Y60603061D01*
X29260384Y60332518D01*
X28810615Y60045857D01*
X28361585Y59759990D01*
X27890335Y59460326D01*
X27438729Y59173513D01*
X27011976Y58902840D01*
X26615284Y58651594D01*
X26253862Y58423061D01*
X25932920Y58220530D01*
X25657665Y58047287D01*
X25433306Y57906619D01*
X25265053Y57801814D01*
X25158114Y57736160D01*
X25118200Y57713097D01*
X25073597Y57708657D01*
X25075152Y57759696D01*
X25083859Y57789180D01*
X25118222Y57902243D01*
X25168326Y58073699D01*
X25231009Y58292164D01*
X25303108Y58546257D01*
X25381461Y58824595D01*
X25462907Y59115796D01*
X25544283Y59408477D01*
X25622427Y59691255D01*
X25694177Y59952749D01*
X25756371Y60181575D01*
X25805847Y60366352D01*
X25839444Y60495697D01*
X25853998Y60558228D01*
X25854215Y60562229D01*
X25818975Y60540466D01*
X25721478Y60474865D01*
X25568712Y60370313D01*
X25367662Y60231695D01*
X25125316Y60063894D01*
X24848661Y59871797D01*
X24544682Y59660288D01*
X24220368Y59434253D01*
X23882705Y59198576D01*
X23538679Y58958143D01*
X23195277Y58717838D01*
X22859486Y58482546D01*
X22538293Y58257153D01*
X22238685Y58046543D01*
X21967648Y57855602D01*
X21732169Y57689215D01*
X21539235Y57552266D01*
X21395832Y57449640D01*
X21308948Y57386223D01*
X21285812Y57368081D01*
X21278077Y57313928D01*
X21293005Y57210467D01*
X21304421Y57163283D01*
X21329972Y57015835D01*
X21309924Y56899499D01*
X21234621Y56799520D01*
X21094403Y56701144D01*
X20952216Y56625214D01*
X20730011Y56526361D01*
X20560113Y56481405D01*
X20555468Y56481679D01*
X20555468Y56896000D01*
X20642870Y56916895D01*
X20757746Y56967198D01*
X20863002Y57028335D01*
X20919522Y57078290D01*
X20927557Y57145170D01*
X20892316Y57261588D01*
X20811101Y57435133D01*
X20755125Y57540718D01*
X20667715Y57675577D01*
X20589813Y57736685D01*
X20556689Y57742509D01*
X20465278Y57721879D01*
X20355862Y57671496D01*
X20257384Y57608228D01*
X20198790Y57548942D01*
X20193000Y57530566D01*
X20212933Y57454172D01*
X20264508Y57337686D01*
X20335395Y57202698D01*
X20413261Y57070796D01*
X20485773Y56963571D01*
X20540599Y56902613D01*
X20555468Y56896000D01*
X20555468Y56481679D01*
X20430624Y56489052D01*
X20329644Y56548009D01*
X20320775Y56556559D01*
X20256131Y56642348D01*
X20172179Y56782824D01*
X20078708Y56957828D01*
X19985509Y57147203D01*
X19902371Y57330791D01*
X19839086Y57488432D01*
X19805442Y57599969D01*
X19802498Y57623716D01*
X19817625Y57726218D01*
G36*
X30973726Y56653305D02*
G01*
X31046942Y56783920D01*
X31148871Y56922968D01*
X31263070Y57050505D01*
X31373097Y57146591D01*
X31462509Y57191282D01*
X31474414Y57192334D01*
X31575884Y57164939D01*
X31695446Y57095764D01*
X31808574Y57004320D01*
X31890746Y56910121D01*
X31917968Y56839421D01*
X31893316Y56759227D01*
X31830241Y56639432D01*
X31748646Y56515000D01*
X31622234Y56349168D01*
X31524957Y56247501D01*
X31444486Y56200349D01*
X31368492Y56198058D01*
X31350054Y56202954D01*
X31345942Y56204946D01*
X31345942Y56486146D01*
X31415760Y56486731D01*
X31499436Y56554810D01*
X31547778Y56609869D01*
X31625760Y56705145D01*
X31656046Y56761091D01*
X31643720Y56804577D01*
X31595272Y56860917D01*
X31517337Y56924855D01*
X31445853Y56922533D01*
X31364832Y56849456D01*
X31313389Y56781671D01*
X31247297Y56682225D01*
X31228087Y56621750D01*
X31250668Y56572377D01*
X31270855Y56548838D01*
X31345942Y56486146D01*
X31345942Y56204946D01*
X31245786Y56253483D01*
X31130421Y56335139D01*
X31027256Y56427865D01*
X30959588Y56511609D01*
X30945667Y56551064D01*
X30973726Y56653305D01*
X30973726Y56653305D01*
G37*
X30973726Y56653305D02*
X31046942Y56783920D01*
X31148871Y56922968D01*
X31263070Y57050505D01*
X31373097Y57146591D01*
X31462509Y57191282D01*
X31474414Y57192334D01*
X31575884Y57164939D01*
X31695446Y57095764D01*
X31808574Y57004320D01*
X31890746Y56910121D01*
X31917968Y56839421D01*
X31893316Y56759227D01*
X31830241Y56639432D01*
X31748646Y56515000D01*
X31622234Y56349168D01*
X31524957Y56247501D01*
X31444486Y56200349D01*
X31368492Y56198058D01*
X31350054Y56202954D01*
X31345942Y56204946D01*
X31345942Y56486146D01*
X31415760Y56486731D01*
X31499436Y56554810D01*
X31547778Y56609869D01*
X31625760Y56705145D01*
X31656046Y56761091D01*
X31643720Y56804577D01*
X31595272Y56860917D01*
X31517337Y56924855D01*
X31445853Y56922533D01*
X31364832Y56849456D01*
X31313389Y56781671D01*
X31247297Y56682225D01*
X31228087Y56621750D01*
X31250668Y56572377D01*
X31270855Y56548838D01*
X31345942Y56486146D01*
X31345942Y56204946D01*
X31245786Y56253483D01*
X31130421Y56335139D01*
X31027256Y56427865D01*
X30959588Y56511609D01*
X30945667Y56551064D01*
X30973726Y56653305D01*
G36*
X31499656Y57413484D02*
G01*
X31541429Y57490926D01*
X31561025Y57523263D01*
X31601397Y57512959D01*
X31694783Y57472570D01*
X31796008Y57423305D01*
X32019768Y57309917D01*
X31844633Y57519097D01*
X31732623Y57675604D01*
X31693536Y57794134D01*
X31729289Y57877908D01*
X31841798Y57930150D01*
X32032980Y57954083D01*
X32104542Y57956204D01*
X32236834Y57958075D01*
X32067500Y58046184D01*
X31951507Y58107050D01*
X31893915Y58145466D01*
X31879041Y58179965D01*
X31891200Y58229081D01*
X31897154Y58247477D01*
X31932854Y58308584D01*
X31996425Y58327269D01*
X32100474Y58302013D01*
X32257606Y58231297D01*
X32327150Y58195696D01*
X32586799Y58060167D01*
X32498726Y57880250D01*
X32440717Y57772063D01*
X32384637Y57719212D01*
X32298209Y57701903D01*
X32205332Y57700334D01*
X32000010Y57700334D01*
X32131214Y57537068D01*
X32262418Y57373803D01*
X32187381Y57208985D01*
X32139021Y57104139D01*
X32107105Y57037489D01*
X32102103Y57028125D01*
X32062102Y57037616D01*
X31964324Y57076806D01*
X31827034Y57138171D01*
X31770686Y57164609D01*
X31614959Y57240248D01*
X31523481Y57292525D01*
X31483460Y57333190D01*
X31482099Y57373990D01*
X31499656Y57413484D01*
X31499656Y57413484D01*
G37*
X31499656Y57413484D02*
X31541429Y57490926D01*
X31561025Y57523263D01*
X31601397Y57512959D01*
X31694783Y57472570D01*
X31796008Y57423305D01*
X32019768Y57309917D01*
X31844633Y57519097D01*
X31732623Y57675604D01*
X31693536Y57794134D01*
X31729289Y57877908D01*
X31841798Y57930150D01*
X32032980Y57954083D01*
X32104542Y57956204D01*
X32236834Y57958075D01*
X32067500Y58046184D01*
X31951507Y58107050D01*
X31893915Y58145466D01*
X31879041Y58179965D01*
X31891200Y58229081D01*
X31897154Y58247477D01*
X31932854Y58308584D01*
X31996425Y58327269D01*
X32100474Y58302013D01*
X32257606Y58231297D01*
X32327150Y58195696D01*
X32586799Y58060167D01*
X32498726Y57880250D01*
X32440717Y57772063D01*
X32384637Y57719212D01*
X32298209Y57701903D01*
X32205332Y57700334D01*
X32000010Y57700334D01*
X32131214Y57537068D01*
X32262418Y57373803D01*
X32187381Y57208985D01*
X32139021Y57104139D01*
X32107105Y57037489D01*
X32102103Y57028125D01*
X32062102Y57037616D01*
X31964324Y57076806D01*
X31827034Y57138171D01*
X31770686Y57164609D01*
X31614959Y57240248D01*
X31523481Y57292525D01*
X31483460Y57333190D01*
X31482099Y57373990D01*
X31499656Y57413484D01*
G36*
X31998313Y58568677D02*
G01*
X32063696Y58628835D01*
X32097040Y58639568D01*
X32163851Y58675379D01*
X32217051Y58770628D01*
X32244208Y58852964D01*
X32309551Y59013599D01*
X32396217Y59098003D01*
X32515635Y59114029D01*
X32598867Y59096703D01*
X32709380Y59056368D01*
X32774867Y59002024D01*
X32798836Y58918203D01*
X32784795Y58789434D01*
X32736251Y58600250D01*
X32722295Y58552392D01*
X32678615Y58411817D01*
X32641717Y58306407D01*
X32620306Y58260195D01*
X32571380Y58259201D01*
X32479035Y58275398D01*
X32479035Y58542676D01*
X32520224Y58610860D01*
X32538955Y58665181D01*
X32571072Y58766534D01*
X32590400Y58823960D01*
X32592228Y58828221D01*
X32563917Y58845920D01*
X32535692Y58857673D01*
X32481657Y58841346D01*
X32435192Y58770878D01*
X32406307Y58676760D01*
X32405012Y58589483D01*
X32432618Y58543734D01*
X32479035Y58542676D01*
X32479035Y58275398D01*
X32466970Y58277515D01*
X32332249Y58308707D01*
X32192392Y58346345D01*
X32072573Y58384000D01*
X31997967Y58415241D01*
X31989212Y58421402D01*
X31967767Y58487962D01*
X31998313Y58568677D01*
X31998313Y58568677D01*
G37*
X31998313Y58568677D02*
X32063696Y58628835D01*
X32097040Y58639568D01*
X32163851Y58675379D01*
X32217051Y58770628D01*
X32244208Y58852964D01*
X32309551Y59013599D01*
X32396217Y59098003D01*
X32515635Y59114029D01*
X32598867Y59096703D01*
X32709380Y59056368D01*
X32774867Y59002024D01*
X32798836Y58918203D01*
X32784795Y58789434D01*
X32736251Y58600250D01*
X32722295Y58552392D01*
X32678615Y58411817D01*
X32641717Y58306407D01*
X32620306Y58260195D01*
X32571380Y58259201D01*
X32479035Y58275398D01*
X32479035Y58542676D01*
X32520224Y58610860D01*
X32538955Y58665181D01*
X32571072Y58766534D01*
X32590400Y58823960D01*
X32592228Y58828221D01*
X32563917Y58845920D01*
X32535692Y58857673D01*
X32481657Y58841346D01*
X32435192Y58770878D01*
X32406307Y58676760D01*
X32405012Y58589483D01*
X32432618Y58543734D01*
X32479035Y58542676D01*
X32479035Y58275398D01*
X32466970Y58277515D01*
X32332249Y58308707D01*
X32192392Y58346345D01*
X32072573Y58384000D01*
X31997967Y58415241D01*
X31989212Y58421402D01*
X31967767Y58487962D01*
X31998313Y58568677D01*
G36*
X32153585Y61756758D02*
G01*
X32221738Y61764334D01*
X32285701Y61795809D01*
X32378095Y61878100D01*
X32473294Y61986584D01*
X32566720Y62101291D01*
X32641449Y62185789D01*
X32680323Y62221070D01*
X32709417Y62193446D01*
X32737046Y62109753D01*
X32739017Y62100333D01*
X32738025Y61961412D01*
X32681139Y61848728D01*
X32617625Y61754358D01*
X32608084Y61702293D01*
X32657964Y61665456D01*
X32723667Y61637334D01*
X32810337Y61599883D01*
X32850352Y61579536D01*
X32850667Y61579001D01*
X32861002Y61539107D01*
X32886264Y61449182D01*
X32890045Y61435971D01*
X32908970Y61334257D01*
X32886614Y61298867D01*
X32882885Y61298667D01*
X32822968Y61318213D01*
X32716488Y61368729D01*
X32621256Y61419961D01*
X32447930Y61501100D01*
X32310946Y61524926D01*
X32274277Y61521826D01*
X32179919Y61517786D01*
X32136613Y61555666D01*
X32121588Y61611203D01*
X32114269Y61712714D01*
X32153585Y61756758D01*
X32153585Y61756758D01*
G37*
X32153585Y61756758D02*
X32221738Y61764334D01*
X32285701Y61795809D01*
X32378095Y61878100D01*
X32473294Y61986584D01*
X32566720Y62101291D01*
X32641449Y62185789D01*
X32680323Y62221070D01*
X32709417Y62193446D01*
X32737046Y62109753D01*
X32739017Y62100333D01*
X32738025Y61961412D01*
X32681139Y61848728D01*
X32617625Y61754358D01*
X32608084Y61702293D01*
X32657964Y61665456D01*
X32723667Y61637334D01*
X32810337Y61599883D01*
X32850352Y61579536D01*
X32850667Y61579001D01*
X32861002Y61539107D01*
X32886264Y61449182D01*
X32890045Y61435971D01*
X32908970Y61334257D01*
X32886614Y61298867D01*
X32882885Y61298667D01*
X32822968Y61318213D01*
X32716488Y61368729D01*
X32621256Y61419961D01*
X32447930Y61501100D01*
X32310946Y61524926D01*
X32274277Y61521826D01*
X32179919Y61517786D01*
X32136613Y61555666D01*
X32121588Y61611203D01*
X32114269Y61712714D01*
X32153585Y61756758D01*
G36*
X32161106Y59250490D02*
G01*
X32186841Y59339485D01*
X32221771Y59406783D01*
X32240100Y59421945D01*
X32282191Y59476099D01*
X32314436Y59581778D01*
X32331734Y59705974D01*
X32328987Y59815678D01*
X32309366Y59870301D01*
X32285235Y59939450D01*
X32268514Y60062113D01*
X32263790Y60164186D01*
X32261244Y60405538D01*
X32744834Y60430834D01*
X32502617Y60579000D01*
X32373819Y60660370D01*
X32301270Y60721429D01*
X32268690Y60785539D01*
X32259795Y60876062D01*
X32259201Y60928250D01*
X32258000Y61129334D01*
X32501417Y61129912D01*
X32653820Y61134622D01*
X32784220Y61146101D01*
X32840084Y61156016D01*
X32906295Y61163119D01*
X32931843Y61121142D01*
X32935334Y61049604D01*
X32935334Y60917667D01*
X32691917Y60917283D01*
X32448500Y60916900D01*
X32713084Y60742475D01*
X32848244Y60650916D01*
X32927183Y60584469D01*
X32965001Y60522622D01*
X32976798Y60444860D01*
X32977667Y60383025D01*
X32977667Y60198000D01*
X32734250Y60197352D01*
X32554697Y60191108D01*
X32457046Y60169672D01*
X32439634Y60127224D01*
X32500800Y60057942D01*
X32638882Y59956005D01*
X32661053Y59940957D01*
X32799178Y59846128D01*
X32880205Y59780187D01*
X32917253Y59724713D01*
X32923440Y59661284D01*
X32913996Y59585756D01*
X32894927Y59476401D01*
X32877975Y59410032D01*
X32874327Y59403216D01*
X32829986Y59382209D01*
X32728730Y59341414D01*
X32593427Y59289383D01*
X32553433Y59274445D01*
X32553433Y59534963D01*
X32637148Y59550250D01*
X32737432Y59576474D01*
X32635299Y59659551D01*
X32563754Y59714065D01*
X32533436Y59712965D01*
X32519896Y59654066D01*
X32519163Y59649179D01*
X32515177Y59561095D01*
X32553433Y59534963D01*
X32553433Y59274445D01*
X32446944Y59234668D01*
X32312150Y59185823D01*
X32211911Y59151401D01*
X32170082Y59139820D01*
X32152781Y59172902D01*
X32161106Y59250490D01*
X32161106Y59250490D01*
G37*
X32161106Y59250490D02*
X32186841Y59339485D01*
X32221771Y59406783D01*
X32240100Y59421945D01*
X32282191Y59476099D01*
X32314436Y59581778D01*
X32331734Y59705974D01*
X32328987Y59815678D01*
X32309366Y59870301D01*
X32285235Y59939450D01*
X32268514Y60062113D01*
X32263790Y60164186D01*
X32261244Y60405538D01*
X32744834Y60430834D01*
X32502617Y60579000D01*
X32373819Y60660370D01*
X32301270Y60721429D01*
X32268690Y60785539D01*
X32259795Y60876062D01*
X32259201Y60928250D01*
X32258000Y61129334D01*
X32501417Y61129912D01*
X32653820Y61134622D01*
X32784220Y61146101D01*
X32840084Y61156016D01*
X32906295Y61163119D01*
X32931843Y61121142D01*
X32935334Y61049604D01*
X32935334Y60917667D01*
X32691917Y60917283D01*
X32448500Y60916900D01*
X32713084Y60742475D01*
X32848244Y60650916D01*
X32927183Y60584469D01*
X32965001Y60522622D01*
X32976798Y60444860D01*
X32977667Y60383025D01*
X32977667Y60198000D01*
X32734250Y60197352D01*
X32554697Y60191108D01*
X32457046Y60169672D01*
X32439634Y60127224D01*
X32500800Y60057942D01*
X32638882Y59956005D01*
X32661053Y59940957D01*
X32799178Y59846128D01*
X32880205Y59780187D01*
X32917253Y59724713D01*
X32923440Y59661284D01*
X32913996Y59585756D01*
X32894927Y59476401D01*
X32877975Y59410032D01*
X32874327Y59403216D01*
X32829986Y59382209D01*
X32728730Y59341414D01*
X32593427Y59289383D01*
X32553433Y59274445D01*
X32553433Y59534963D01*
X32637148Y59550250D01*
X32737432Y59576474D01*
X32635299Y59659551D01*
X32563754Y59714065D01*
X32533436Y59712965D01*
X32519896Y59654066D01*
X32519163Y59649179D01*
X32515177Y59561095D01*
X32553433Y59534963D01*
X32553433Y59274445D01*
X32446944Y59234668D01*
X32312150Y59185823D01*
X32211911Y59151401D01*
X32170082Y59139820D01*
X32152781Y59172902D01*
X32161106Y59250490D01*
D11*
X58420000Y45989000D03*
D12*
X58420000Y32489000D03*
D13*
X29210000Y40500000D03*
X29210000Y80500000D03*
D11*
X48387000Y55880000D03*
X56007000Y55880000D03*
X60960000Y55880000D03*
X68580000Y55880000D03*
X48260000Y64770000D03*
X55880000Y64770000D03*
X68580000Y64770000D03*
X60960000Y64770000D03*
X51435000Y79375000D03*
X51435000Y86995000D03*
D14*
X54610000Y41275000D03*
X54610000Y38735000D03*
X54610000Y36195000D03*
X54610000Y33655000D03*
X46990000Y33655000D03*
X46990000Y36195000D03*
X46990000Y38735000D03*
D15*
X46990000Y41275000D03*
D16*
X62865000Y45085000D03*
X62865000Y42545000D03*
X65405000Y45085000D03*
X65405000Y42545000D03*
X67945000Y45085000D03*
X67945000Y42545000D03*
D11*
X48260000Y49403000D03*
X48260000Y51943000D03*
X57785000Y49530000D03*
X57785000Y52070000D03*
X67310000Y49530000D03*
X67310000Y52070000D03*
X48260000Y69215000D03*
X48260000Y71755000D03*
X57785000Y69215000D03*
X57785000Y71755000D03*
X67310000Y69215000D03*
X67310000Y71755000D03*
X57785000Y59055000D03*
X57785000Y61595000D03*
D17*
X47625000Y86995000D03*
X47625000Y77597000D03*
D18*
X46990000Y45720000D03*
X52070000Y45720000D03*
D19*
X59690000Y87630000D03*
D20*
X59690000Y74930000D03*
D19*
X59690000Y83820000D03*
M02*
