G04 #@! TF.GenerationSoftware,KiCad,Pcbnew,(5.1.0)-1*
G04 #@! TF.CreationDate,2020-05-20T17:07:27+01:00*
G04 #@! TF.ProjectId,SolarDice,536f6c61-7244-4696-9365-2e6b69636164,rev?*
G04 #@! TF.SameCoordinates,PX5faea10PY77e7cd0*
G04 #@! TF.FileFunction,Copper,L1,Top*
G04 #@! TF.FilePolarity,Positive*
%FSLAX46Y46*%
G04 Gerber Fmt 4.6, Leading zero omitted, Abs format (unit mm)*
G04 Created by KiCad (PCBNEW (5.1.0)-1) date 2020-05-20 17:07:27*
%MOMM*%
%LPD*%
G04 APERTURE LIST*
%ADD10C,2.032000*%
%ADD11R,2.032000X2.032000*%
%ADD12O,8.000000X12.000000*%
%ADD13O,2.286000X1.574800*%
%ADD14R,2.286000X1.574800*%
%ADD15C,1.600200*%
%ADD16C,2.540000*%
%ADD17C,1.905000*%
%ADD18R,2.800000X1.600000*%
%ADD19O,2.800000X1.600000*%
%ADD20C,0.600000*%
%ADD21C,1.000000*%
%ADD22C,0.254000*%
G04 APERTURE END LIST*
D10*
X58420000Y45989000D03*
D11*
X58420000Y32489000D03*
D12*
X29210000Y40500000D03*
X29210000Y80500000D03*
D10*
X48387000Y55880000D03*
X56007000Y55880000D03*
X60960000Y55880000D03*
X68580000Y55880000D03*
X48260000Y64770000D03*
X55880000Y64770000D03*
X68580000Y64770000D03*
X60960000Y64770000D03*
X51435000Y79375000D03*
X51435000Y86995000D03*
D13*
X54610000Y41275000D03*
X54610000Y38735000D03*
X54610000Y36195000D03*
X54610000Y33655000D03*
X46990000Y33655000D03*
X46990000Y36195000D03*
X46990000Y38735000D03*
D14*
X46990000Y41275000D03*
D15*
X62865000Y45085000D03*
X62865000Y42545000D03*
X65405000Y45085000D03*
X65405000Y42545000D03*
X67945000Y45085000D03*
X67945000Y42545000D03*
D10*
X48260000Y49403000D03*
X48260000Y51943000D03*
X57785000Y49530000D03*
X57785000Y52070000D03*
X67310000Y49530000D03*
X67310000Y52070000D03*
X48260000Y69215000D03*
X48260000Y71755000D03*
X57785000Y69215000D03*
X57785000Y71755000D03*
X67310000Y69215000D03*
X67310000Y71755000D03*
X57785000Y59055000D03*
X57785000Y61595000D03*
D16*
X47625000Y86995000D03*
X47625000Y77597000D03*
D17*
X46990000Y45720000D03*
X52070000Y45720000D03*
D18*
X59690000Y87630000D03*
D19*
X59690000Y74930000D03*
D18*
X59690000Y83820000D03*
D20*
X39243000Y43180000D03*
X51943000Y41275000D03*
X60452000Y38354000D03*
X46228000Y58420000D03*
X41148000Y55880000D03*
X40894000Y38100000D03*
X42545000Y55753000D03*
X70485000Y40767000D03*
D21*
X39243000Y43688000D02*
X39243000Y43180000D01*
X39243000Y82423000D02*
X39243000Y43688000D01*
X47625000Y86995000D02*
X43815000Y86995000D01*
X43815000Y86995000D02*
X39243000Y82423000D01*
X59009001Y41320999D02*
X56896000Y43434000D01*
X56896000Y43434000D02*
X52959000Y43434000D01*
X52959000Y43434000D02*
X51943000Y42418000D01*
X51943000Y42418000D02*
X51943000Y41275000D01*
X60452000Y39878000D02*
X56896000Y43434000D01*
X60452000Y38354000D02*
X60452000Y39878000D01*
X60960000Y55880000D02*
X59309000Y54229000D01*
X57277000Y54229000D02*
X56896000Y53848000D01*
X59309000Y54229000D02*
X57277000Y54229000D01*
X56896000Y53848000D02*
X53213000Y53848000D01*
X53213000Y53848000D02*
X51816000Y55245000D01*
X51816000Y55245000D02*
X51816000Y56642000D01*
X51816000Y56642000D02*
X50038000Y58420000D01*
X50038000Y58420000D02*
X46228000Y58420000D01*
X41148000Y55880000D02*
X41148000Y38354000D01*
X41148000Y38354000D02*
X40894000Y38100000D01*
X46990000Y35560000D02*
X46634400Y35560000D01*
X46634400Y35560000D02*
X44450000Y35560000D01*
X44450000Y35560000D02*
X42545000Y37465000D01*
X42545000Y37465000D02*
X42545000Y55753000D01*
X45466000Y64770000D02*
X48260000Y64770000D01*
X44069000Y63373000D02*
X45466000Y64770000D01*
X44069000Y49657000D02*
X44069000Y63373000D01*
X50165000Y37719000D02*
X50165000Y45339000D01*
X50165000Y45339000D02*
X48006000Y47498000D01*
X48006000Y47498000D02*
X46228000Y47498000D01*
X46228000Y47498000D02*
X44069000Y49657000D01*
X51689000Y36195000D02*
X51054000Y36830000D01*
X54610000Y36195000D02*
X51689000Y36195000D01*
X51054000Y36830000D02*
X50165000Y37719000D01*
X68580000Y64770000D02*
X70485000Y62865000D01*
X67183000Y46863000D02*
X70485000Y46863000D01*
X65405000Y45085000D02*
X67183000Y46863000D01*
X70485000Y62865000D02*
X70485000Y46863000D01*
X70485000Y42164000D02*
X70485000Y40767000D01*
X70485000Y42164000D02*
X70485000Y46863000D01*
X60579000Y48006000D02*
X63373000Y50800000D01*
X63373000Y50800000D02*
X63373000Y66294000D01*
X63373000Y66294000D02*
X62611000Y67056000D01*
X62611000Y67056000D02*
X53467000Y67056000D01*
X51435000Y69088000D02*
X51435000Y79375000D01*
X53467000Y67056000D02*
X51435000Y69088000D01*
X58420000Y34505000D02*
X58420000Y35052000D01*
X58420000Y32489000D02*
X58420000Y34505000D01*
X58420000Y34085000D02*
X58420000Y35052000D01*
X58420000Y36449000D02*
X63373000Y36449000D01*
X58420000Y35052000D02*
X58420000Y36449000D01*
X63373000Y36449000D02*
X65405000Y38481000D01*
X60579000Y42164000D02*
X60579000Y42037000D01*
X60579000Y42164000D02*
X60579000Y48006000D01*
X62230000Y40386000D02*
X65405000Y40386000D01*
X60579000Y42037000D02*
X62230000Y40386000D01*
X65405000Y38481000D02*
X65405000Y40386000D01*
X65405000Y40386000D02*
X65405000Y42545000D01*
X58420000Y37068000D02*
X58420000Y36449000D01*
X56753000Y38735000D02*
X58420000Y37068000D01*
X54610000Y38735000D02*
X56753000Y38735000D01*
X54864000Y52070000D02*
X57785000Y52070000D01*
X48260000Y49403000D02*
X52197000Y49403000D01*
X52197000Y49403000D02*
X54864000Y52070000D01*
X57785000Y69215000D02*
X60833000Y69215000D01*
X60833000Y69215000D02*
X63373000Y71755000D01*
X63373000Y71755000D02*
X67310000Y71755000D01*
D22*
G36*
X68187042Y89374904D02*
G01*
X68485411Y89332948D01*
X68772166Y89264953D01*
X69046031Y89172436D01*
X69305622Y89056916D01*
X69549483Y88919944D01*
X69776161Y88763095D01*
X69984202Y88587992D01*
X70172205Y88396270D01*
X70338856Y88189547D01*
X70482940Y87969367D01*
X70603331Y87737156D01*
X70698991Y87494106D01*
X70768862Y87241184D01*
X70811807Y86979052D01*
X70827492Y86689414D01*
X70827492Y64127639D01*
X70231000Y64724131D01*
X70231000Y64932609D01*
X70167553Y65251579D01*
X70043097Y65552042D01*
X69862415Y65822451D01*
X69632451Y66052415D01*
X69362042Y66233097D01*
X69061579Y66357553D01*
X68742609Y66421000D01*
X68417391Y66421000D01*
X68098421Y66357553D01*
X67797958Y66233097D01*
X67527549Y66052415D01*
X67297585Y65822451D01*
X67116903Y65552042D01*
X66992447Y65251579D01*
X66929000Y64932609D01*
X66929000Y64607391D01*
X66992447Y64288421D01*
X67116903Y63987958D01*
X67297585Y63717549D01*
X67527549Y63487585D01*
X67797958Y63306903D01*
X68098421Y63182447D01*
X68417391Y63119000D01*
X68625869Y63119000D01*
X69350000Y62394868D01*
X69350000Y57348085D01*
X69061579Y57467553D01*
X68742609Y57531000D01*
X68417391Y57531000D01*
X68098421Y57467553D01*
X67797958Y57343097D01*
X67527549Y57162415D01*
X67297585Y56932451D01*
X67116903Y56662042D01*
X66992447Y56361579D01*
X66929000Y56042609D01*
X66929000Y55717391D01*
X66992447Y55398421D01*
X67116903Y55097958D01*
X67297585Y54827549D01*
X67527549Y54597585D01*
X67797958Y54416903D01*
X68098421Y54292447D01*
X68417391Y54229000D01*
X68742609Y54229000D01*
X69061579Y54292447D01*
X69350001Y54411915D01*
X69350001Y47998000D01*
X67925696Y47998000D01*
X68092042Y48066903D01*
X68362451Y48247585D01*
X68592415Y48477549D01*
X68773097Y48747958D01*
X68897553Y49048421D01*
X68961000Y49367391D01*
X68961000Y49692609D01*
X68897553Y50011579D01*
X68773097Y50312042D01*
X68592415Y50582451D01*
X68374866Y50800000D01*
X68592415Y51017549D01*
X68773097Y51287958D01*
X68897553Y51588421D01*
X68961000Y51907391D01*
X68961000Y52232609D01*
X68897553Y52551579D01*
X68773097Y52852042D01*
X68592415Y53122451D01*
X68362451Y53352415D01*
X68092042Y53533097D01*
X67791579Y53657553D01*
X67472609Y53721000D01*
X67147391Y53721000D01*
X66828421Y53657553D01*
X66527958Y53533097D01*
X66257549Y53352415D01*
X66027585Y53122451D01*
X65846903Y52852042D01*
X65722447Y52551579D01*
X65659000Y52232609D01*
X65659000Y51907391D01*
X65722447Y51588421D01*
X65846903Y51287958D01*
X66027585Y51017549D01*
X66245134Y50800000D01*
X66027585Y50582451D01*
X65846903Y50312042D01*
X65722447Y50011579D01*
X65659000Y49692609D01*
X65659000Y49367391D01*
X65722447Y49048421D01*
X65846903Y48747958D01*
X66027585Y48477549D01*
X66257549Y48247585D01*
X66527958Y48066903D01*
X66828421Y47942447D01*
X66830285Y47942076D01*
X66746553Y47916676D01*
X66549377Y47811284D01*
X66419856Y47704989D01*
X66419854Y47704987D01*
X66376551Y47669449D01*
X66341013Y47626146D01*
X65227845Y46512977D01*
X64986397Y46464950D01*
X64725225Y46356769D01*
X64490177Y46199715D01*
X64290285Y45999823D01*
X64135000Y45767422D01*
X63979715Y45999823D01*
X63779823Y46199715D01*
X63544775Y46356769D01*
X63283603Y46464950D01*
X63006345Y46520100D01*
X62723655Y46520100D01*
X62446397Y46464950D01*
X62185225Y46356769D01*
X61950177Y46199715D01*
X61750285Y45999823D01*
X61714000Y45945519D01*
X61714000Y47535869D01*
X64136146Y49958013D01*
X64179449Y49993551D01*
X64321284Y50166377D01*
X64426676Y50363553D01*
X64491577Y50577501D01*
X64508000Y50744248D01*
X64508000Y50744249D01*
X64513491Y50800000D01*
X64508000Y50855752D01*
X64508000Y66238248D01*
X64513491Y66294000D01*
X64491577Y66516499D01*
X64426676Y66730447D01*
X64321284Y66927623D01*
X64214989Y67057143D01*
X64179449Y67100449D01*
X64136140Y67135992D01*
X63452995Y67819136D01*
X63417449Y67862449D01*
X63244623Y68004284D01*
X63047447Y68109676D01*
X62833499Y68174577D01*
X62666752Y68191000D01*
X62666751Y68191000D01*
X62611000Y68196491D01*
X62555249Y68191000D01*
X61324967Y68191000D01*
X61466623Y68266716D01*
X61639449Y68408551D01*
X61674996Y68451865D01*
X63843132Y70620000D01*
X66110134Y70620000D01*
X66245134Y70485000D01*
X66027585Y70267451D01*
X65846903Y69997042D01*
X65722447Y69696579D01*
X65659000Y69377609D01*
X65659000Y69052391D01*
X65722447Y68733421D01*
X65846903Y68432958D01*
X66027585Y68162549D01*
X66257549Y67932585D01*
X66527958Y67751903D01*
X66828421Y67627447D01*
X67147391Y67564000D01*
X67472609Y67564000D01*
X67791579Y67627447D01*
X68092042Y67751903D01*
X68362451Y67932585D01*
X68592415Y68162549D01*
X68773097Y68432958D01*
X68897553Y68733421D01*
X68961000Y69052391D01*
X68961000Y69377609D01*
X68897553Y69696579D01*
X68773097Y69997042D01*
X68592415Y70267451D01*
X68374866Y70485000D01*
X68592415Y70702549D01*
X68773097Y70972958D01*
X68897553Y71273421D01*
X68961000Y71592391D01*
X68961000Y71917609D01*
X68897553Y72236579D01*
X68773097Y72537042D01*
X68592415Y72807451D01*
X68362451Y73037415D01*
X68092042Y73218097D01*
X67791579Y73342553D01*
X67472609Y73406000D01*
X67147391Y73406000D01*
X66828421Y73342553D01*
X66527958Y73218097D01*
X66257549Y73037415D01*
X66110134Y72890000D01*
X63428741Y72890000D01*
X63372999Y72895490D01*
X63317257Y72890000D01*
X63317248Y72890000D01*
X63150501Y72873577D01*
X62936553Y72808676D01*
X62739377Y72703284D01*
X62566551Y72561449D01*
X62531009Y72518141D01*
X60362869Y70350000D01*
X58984866Y70350000D01*
X58849866Y70485000D01*
X59067415Y70702549D01*
X59248097Y70972958D01*
X59372553Y71273421D01*
X59436000Y71592391D01*
X59436000Y71917609D01*
X59372553Y72236579D01*
X59248097Y72537042D01*
X59067415Y72807451D01*
X58837451Y73037415D01*
X58567042Y73218097D01*
X58266579Y73342553D01*
X57947609Y73406000D01*
X57622391Y73406000D01*
X57303421Y73342553D01*
X57002958Y73218097D01*
X56732549Y73037415D01*
X56502585Y72807451D01*
X56321903Y72537042D01*
X56197447Y72236579D01*
X56134000Y71917609D01*
X56134000Y71592391D01*
X56197447Y71273421D01*
X56321903Y70972958D01*
X56502585Y70702549D01*
X56720134Y70485000D01*
X56502585Y70267451D01*
X56321903Y69997042D01*
X56197447Y69696579D01*
X56134000Y69377609D01*
X56134000Y69052391D01*
X56197447Y68733421D01*
X56321903Y68432958D01*
X56483575Y68191000D01*
X53937132Y68191000D01*
X52570000Y69558131D01*
X52570000Y74580961D01*
X57698096Y74580961D01*
X57715633Y74498182D01*
X57826285Y74238354D01*
X57985500Y74005105D01*
X58187161Y73807399D01*
X58423517Y73652834D01*
X58685486Y73547350D01*
X58963000Y73495000D01*
X59563000Y73495000D01*
X59563000Y74803000D01*
X59817000Y74803000D01*
X59817000Y73495000D01*
X60417000Y73495000D01*
X60694514Y73547350D01*
X60956483Y73652834D01*
X61192839Y73807399D01*
X61394500Y74005105D01*
X61553715Y74238354D01*
X61664367Y74498182D01*
X61681904Y74580961D01*
X61559915Y74803000D01*
X59817000Y74803000D01*
X59563000Y74803000D01*
X57820085Y74803000D01*
X57698096Y74580961D01*
X52570000Y74580961D01*
X52570000Y75279039D01*
X57698096Y75279039D01*
X57820085Y75057000D01*
X59563000Y75057000D01*
X59563000Y75077000D01*
X59817000Y75077000D01*
X59817000Y75057000D01*
X61559915Y75057000D01*
X61681904Y75279039D01*
X61664367Y75361818D01*
X61553715Y75621646D01*
X61394500Y75854895D01*
X61192839Y76052601D01*
X60956483Y76207166D01*
X60694514Y76312650D01*
X60417000Y76365000D01*
X58963000Y76365000D01*
X58685486Y76312650D01*
X58423517Y76207166D01*
X58187161Y76052601D01*
X57985500Y75854895D01*
X57826285Y75621646D01*
X57715633Y75361818D01*
X57698096Y75279039D01*
X52570000Y75279039D01*
X52570000Y78175134D01*
X52717415Y78322549D01*
X52898097Y78592958D01*
X53022553Y78893421D01*
X53086000Y79212391D01*
X53086000Y79537609D01*
X53022553Y79856579D01*
X52898097Y80157042D01*
X52717415Y80427451D01*
X52487451Y80657415D01*
X52217042Y80838097D01*
X51916579Y80962553D01*
X51597609Y81026000D01*
X51272391Y81026000D01*
X50953421Y80962553D01*
X50652958Y80838097D01*
X50382549Y80657415D01*
X50152585Y80427451D01*
X49971903Y80157042D01*
X49847447Y79856579D01*
X49784000Y79537609D01*
X49784000Y79212391D01*
X49847447Y78893421D01*
X49971903Y78592958D01*
X50152585Y78322549D01*
X50300001Y78175133D01*
X50300000Y69143752D01*
X50294509Y69088000D01*
X50300000Y69032249D01*
X50316423Y68865502D01*
X50381324Y68651554D01*
X50486716Y68454377D01*
X50628551Y68281551D01*
X50671865Y68246004D01*
X52625009Y66292859D01*
X52660551Y66249551D01*
X52833377Y66107716D01*
X53030553Y66002324D01*
X53244501Y65937423D01*
X53467000Y65915509D01*
X53522751Y65921000D01*
X54696134Y65921000D01*
X54597585Y65822451D01*
X54416903Y65552042D01*
X54292447Y65251579D01*
X54229000Y64932609D01*
X54229000Y64607391D01*
X54292447Y64288421D01*
X54416903Y63987958D01*
X54597585Y63717549D01*
X54827549Y63487585D01*
X55097958Y63306903D01*
X55398421Y63182447D01*
X55717391Y63119000D01*
X56042609Y63119000D01*
X56361579Y63182447D01*
X56662042Y63306903D01*
X56932451Y63487585D01*
X57162415Y63717549D01*
X57343097Y63987958D01*
X57467553Y64288421D01*
X57531000Y64607391D01*
X57531000Y64932609D01*
X57467553Y65251579D01*
X57343097Y65552042D01*
X57162415Y65822451D01*
X57063866Y65921000D01*
X59776134Y65921000D01*
X59677585Y65822451D01*
X59496903Y65552042D01*
X59372447Y65251579D01*
X59309000Y64932609D01*
X59309000Y64607391D01*
X59372447Y64288421D01*
X59496903Y63987958D01*
X59677585Y63717549D01*
X59907549Y63487585D01*
X60177958Y63306903D01*
X60478421Y63182447D01*
X60797391Y63119000D01*
X61122609Y63119000D01*
X61441579Y63182447D01*
X61742042Y63306903D01*
X62012451Y63487585D01*
X62238001Y63713135D01*
X62238000Y56936866D01*
X62012451Y57162415D01*
X61742042Y57343097D01*
X61441579Y57467553D01*
X61122609Y57531000D01*
X60797391Y57531000D01*
X60478421Y57467553D01*
X60177958Y57343097D01*
X59907549Y57162415D01*
X59677585Y56932451D01*
X59496903Y56662042D01*
X59372447Y56361579D01*
X59309000Y56042609D01*
X59309000Y55834132D01*
X58838869Y55364000D01*
X57580295Y55364000D01*
X57594553Y55398421D01*
X57658000Y55717391D01*
X57658000Y56042609D01*
X57594553Y56361579D01*
X57470097Y56662042D01*
X57289415Y56932451D01*
X57059451Y57162415D01*
X56789042Y57343097D01*
X56488579Y57467553D01*
X56169609Y57531000D01*
X55844391Y57531000D01*
X55525421Y57467553D01*
X55224958Y57343097D01*
X54954549Y57162415D01*
X54724585Y56932451D01*
X54543903Y56662042D01*
X54419447Y56361579D01*
X54356000Y56042609D01*
X54356000Y55717391D01*
X54419447Y55398421D01*
X54543903Y55097958D01*
X54620716Y54983000D01*
X53683132Y54983000D01*
X52951000Y55715131D01*
X52951000Y56586248D01*
X52956491Y56642000D01*
X52934577Y56864499D01*
X52869676Y57078447D01*
X52764284Y57275623D01*
X52657989Y57405144D01*
X52657987Y57405146D01*
X52622449Y57448449D01*
X52579146Y57483987D01*
X50879995Y59183136D01*
X50844449Y59226449D01*
X50671623Y59368284D01*
X50474447Y59473676D01*
X50260499Y59538577D01*
X50093752Y59555000D01*
X50093751Y59555000D01*
X50038000Y59560491D01*
X49982249Y59555000D01*
X46172248Y59555000D01*
X46005501Y59538577D01*
X45791553Y59473676D01*
X45594377Y59368284D01*
X45421551Y59226449D01*
X45279716Y59053623D01*
X45204000Y58911967D01*
X45204000Y61757609D01*
X56134000Y61757609D01*
X56134000Y61432391D01*
X56197447Y61113421D01*
X56321903Y60812958D01*
X56502585Y60542549D01*
X56720134Y60325000D01*
X56502585Y60107451D01*
X56321903Y59837042D01*
X56197447Y59536579D01*
X56134000Y59217609D01*
X56134000Y58892391D01*
X56197447Y58573421D01*
X56321903Y58272958D01*
X56502585Y58002549D01*
X56732549Y57772585D01*
X57002958Y57591903D01*
X57303421Y57467447D01*
X57622391Y57404000D01*
X57947609Y57404000D01*
X58266579Y57467447D01*
X58567042Y57591903D01*
X58837451Y57772585D01*
X59067415Y58002549D01*
X59248097Y58272958D01*
X59372553Y58573421D01*
X59436000Y58892391D01*
X59436000Y59217609D01*
X59372553Y59536579D01*
X59248097Y59837042D01*
X59067415Y60107451D01*
X58849866Y60325000D01*
X59067415Y60542549D01*
X59248097Y60812958D01*
X59372553Y61113421D01*
X59436000Y61432391D01*
X59436000Y61757609D01*
X59372553Y62076579D01*
X59248097Y62377042D01*
X59067415Y62647451D01*
X58837451Y62877415D01*
X58567042Y63058097D01*
X58266579Y63182553D01*
X57947609Y63246000D01*
X57622391Y63246000D01*
X57303421Y63182553D01*
X57002958Y63058097D01*
X56732549Y62877415D01*
X56502585Y62647451D01*
X56321903Y62377042D01*
X56197447Y62076579D01*
X56134000Y61757609D01*
X45204000Y61757609D01*
X45204000Y62902869D01*
X45936132Y63635000D01*
X47060134Y63635000D01*
X47207549Y63487585D01*
X47477958Y63306903D01*
X47778421Y63182447D01*
X48097391Y63119000D01*
X48422609Y63119000D01*
X48741579Y63182447D01*
X49042042Y63306903D01*
X49312451Y63487585D01*
X49542415Y63717549D01*
X49723097Y63987958D01*
X49847553Y64288421D01*
X49911000Y64607391D01*
X49911000Y64932609D01*
X49847553Y65251579D01*
X49723097Y65552042D01*
X49542415Y65822451D01*
X49312451Y66052415D01*
X49042042Y66233097D01*
X48741579Y66357553D01*
X48422609Y66421000D01*
X48097391Y66421000D01*
X47778421Y66357553D01*
X47477958Y66233097D01*
X47207549Y66052415D01*
X47060134Y65905000D01*
X45521741Y65905000D01*
X45465999Y65910490D01*
X45410257Y65905000D01*
X45410248Y65905000D01*
X45243501Y65888577D01*
X45029553Y65823676D01*
X44832377Y65718284D01*
X44659551Y65576449D01*
X44624008Y65533140D01*
X43305860Y64214991D01*
X43262552Y64179449D01*
X43120717Y64006623D01*
X43108399Y63983577D01*
X43015324Y63809446D01*
X42950423Y63595498D01*
X42928509Y63373000D01*
X42934001Y63317239D01*
X42934001Y56821069D01*
X42767499Y56871577D01*
X42545000Y56893491D01*
X42322502Y56871577D01*
X42108554Y56806676D01*
X41926514Y56709374D01*
X41781623Y56828284D01*
X41584446Y56933676D01*
X41370498Y56998577D01*
X41148000Y57020491D01*
X40925501Y56998577D01*
X40711553Y56933676D01*
X40514377Y56828284D01*
X40378000Y56716362D01*
X40378000Y71917609D01*
X46609000Y71917609D01*
X46609000Y71592391D01*
X46672447Y71273421D01*
X46796903Y70972958D01*
X46977585Y70702549D01*
X47195134Y70485000D01*
X46977585Y70267451D01*
X46796903Y69997042D01*
X46672447Y69696579D01*
X46609000Y69377609D01*
X46609000Y69052391D01*
X46672447Y68733421D01*
X46796903Y68432958D01*
X46977585Y68162549D01*
X47207549Y67932585D01*
X47477958Y67751903D01*
X47778421Y67627447D01*
X48097391Y67564000D01*
X48422609Y67564000D01*
X48741579Y67627447D01*
X49042042Y67751903D01*
X49312451Y67932585D01*
X49542415Y68162549D01*
X49723097Y68432958D01*
X49847553Y68733421D01*
X49911000Y69052391D01*
X49911000Y69377609D01*
X49847553Y69696579D01*
X49723097Y69997042D01*
X49542415Y70267451D01*
X49324866Y70485000D01*
X49542415Y70702549D01*
X49723097Y70972958D01*
X49847553Y71273421D01*
X49911000Y71592391D01*
X49911000Y71917609D01*
X49847553Y72236579D01*
X49723097Y72537042D01*
X49542415Y72807451D01*
X49312451Y73037415D01*
X49042042Y73218097D01*
X48741579Y73342553D01*
X48422609Y73406000D01*
X48097391Y73406000D01*
X47778421Y73342553D01*
X47477958Y73218097D01*
X47207549Y73037415D01*
X46977585Y72807451D01*
X46796903Y72537042D01*
X46672447Y72236579D01*
X46609000Y71917609D01*
X40378000Y71917609D01*
X40378000Y77784626D01*
X45720000Y77784626D01*
X45720000Y77409374D01*
X45793209Y77041332D01*
X45936811Y76694644D01*
X46145290Y76382634D01*
X46410634Y76117290D01*
X46722644Y75908811D01*
X47069332Y75765209D01*
X47437374Y75692000D01*
X47812626Y75692000D01*
X48180668Y75765209D01*
X48527356Y75908811D01*
X48839366Y76117290D01*
X49104710Y76382634D01*
X49313189Y76694644D01*
X49456791Y77041332D01*
X49530000Y77409374D01*
X49530000Y77784626D01*
X49456791Y78152668D01*
X49313189Y78499356D01*
X49104710Y78811366D01*
X48839366Y79076710D01*
X48527356Y79285189D01*
X48180668Y79428791D01*
X47812626Y79502000D01*
X47437374Y79502000D01*
X47069332Y79428791D01*
X46722644Y79285189D01*
X46410634Y79076710D01*
X46145290Y78811366D01*
X45936811Y78499356D01*
X45793209Y78152668D01*
X45720000Y77784626D01*
X40378000Y77784626D01*
X40378000Y81952869D01*
X43045131Y84620000D01*
X57651928Y84620000D01*
X57651928Y83020000D01*
X57664188Y82895518D01*
X57700498Y82775820D01*
X57759463Y82665506D01*
X57838815Y82568815D01*
X57935506Y82489463D01*
X58045820Y82430498D01*
X58165518Y82394188D01*
X58290000Y82381928D01*
X61090000Y82381928D01*
X61214482Y82394188D01*
X61334180Y82430498D01*
X61444494Y82489463D01*
X61541185Y82568815D01*
X61620537Y82665506D01*
X61679502Y82775820D01*
X61715812Y82895518D01*
X61728072Y83020000D01*
X61728072Y84620000D01*
X61715812Y84744482D01*
X61679502Y84864180D01*
X61620537Y84974494D01*
X61541185Y85071185D01*
X61444494Y85150537D01*
X61334180Y85209502D01*
X61214482Y85245812D01*
X61090000Y85258072D01*
X58290000Y85258072D01*
X58165518Y85245812D01*
X58045820Y85209502D01*
X57935506Y85150537D01*
X57838815Y85071185D01*
X57759463Y84974494D01*
X57700498Y84864180D01*
X57664188Y84744482D01*
X57651928Y84620000D01*
X43045131Y84620000D01*
X44285132Y85860000D01*
X46092259Y85860000D01*
X46145290Y85780634D01*
X46410634Y85515290D01*
X46722644Y85306811D01*
X47069332Y85163209D01*
X47437374Y85090000D01*
X47812626Y85090000D01*
X48180668Y85163209D01*
X48527356Y85306811D01*
X48839366Y85515290D01*
X49104710Y85780634D01*
X49313189Y86092644D01*
X49456791Y86439332D01*
X49530000Y86807374D01*
X49530000Y87157609D01*
X49784000Y87157609D01*
X49784000Y86832391D01*
X49847447Y86513421D01*
X49971903Y86212958D01*
X50152585Y85942549D01*
X50382549Y85712585D01*
X50652958Y85531903D01*
X50953421Y85407447D01*
X51272391Y85344000D01*
X51597609Y85344000D01*
X51916579Y85407447D01*
X52217042Y85531903D01*
X52487451Y85712585D01*
X52717415Y85942549D01*
X52898097Y86212958D01*
X53022553Y86513421D01*
X53086000Y86832391D01*
X53086000Y87157609D01*
X53022553Y87476579D01*
X52898097Y87777042D01*
X52717415Y88047451D01*
X52487451Y88277415D01*
X52259093Y88430000D01*
X57651928Y88430000D01*
X57651928Y86830000D01*
X57664188Y86705518D01*
X57700498Y86585820D01*
X57759463Y86475506D01*
X57838815Y86378815D01*
X57935506Y86299463D01*
X58045820Y86240498D01*
X58165518Y86204188D01*
X58290000Y86191928D01*
X61090000Y86191928D01*
X61214482Y86204188D01*
X61334180Y86240498D01*
X61444494Y86299463D01*
X61541185Y86378815D01*
X61620537Y86475506D01*
X61679502Y86585820D01*
X61715812Y86705518D01*
X61728072Y86830000D01*
X61728072Y88430000D01*
X61715812Y88554482D01*
X61679502Y88674180D01*
X61620537Y88784494D01*
X61541185Y88881185D01*
X61444494Y88960537D01*
X61334180Y89019502D01*
X61214482Y89055812D01*
X61090000Y89068072D01*
X58290000Y89068072D01*
X58165518Y89055812D01*
X58045820Y89019502D01*
X57935506Y88960537D01*
X57838815Y88881185D01*
X57759463Y88784494D01*
X57700498Y88674180D01*
X57664188Y88554482D01*
X57651928Y88430000D01*
X52259093Y88430000D01*
X52217042Y88458097D01*
X51916579Y88582553D01*
X51597609Y88646000D01*
X51272391Y88646000D01*
X50953421Y88582553D01*
X50652958Y88458097D01*
X50382549Y88277415D01*
X50152585Y88047451D01*
X49971903Y87777042D01*
X49847447Y87476579D01*
X49784000Y87157609D01*
X49530000Y87157609D01*
X49530000Y87182626D01*
X49456791Y87550668D01*
X49313189Y87897356D01*
X49104710Y88209366D01*
X48839366Y88474710D01*
X48527356Y88683189D01*
X48180668Y88826791D01*
X47812626Y88900000D01*
X47437374Y88900000D01*
X47069332Y88826791D01*
X46722644Y88683189D01*
X46410634Y88474710D01*
X46145290Y88209366D01*
X46092259Y88130000D01*
X43870741Y88130000D01*
X43814999Y88135490D01*
X43759257Y88130000D01*
X43759248Y88130000D01*
X43592501Y88113577D01*
X43378553Y88048676D01*
X43181377Y87943284D01*
X43008551Y87801449D01*
X42973009Y87758141D01*
X38479865Y83264996D01*
X38436551Y83229449D01*
X38294716Y83056623D01*
X38208605Y82895518D01*
X38189324Y82859446D01*
X38124423Y82645498D01*
X38102509Y82423000D01*
X38108000Y82367249D01*
X38108001Y43743761D01*
X38108000Y43743751D01*
X38108000Y43124248D01*
X38124423Y42957501D01*
X38189324Y42743553D01*
X38294717Y42546377D01*
X38436552Y42373551D01*
X38609378Y42231716D01*
X38806554Y42126324D01*
X39020502Y42061423D01*
X39243000Y42039509D01*
X39465499Y42061423D01*
X39679447Y42126324D01*
X39876623Y42231716D01*
X40013001Y42343639D01*
X40013001Y38815608D01*
X39945717Y38733622D01*
X39840324Y38536446D01*
X39775423Y38322498D01*
X39753509Y38100000D01*
X39775423Y37877502D01*
X39840324Y37663554D01*
X39945717Y37466378D01*
X40087552Y37293552D01*
X40260378Y37151717D01*
X40457554Y37046324D01*
X40671502Y36981423D01*
X40894000Y36959509D01*
X41116498Y36981423D01*
X41330446Y37046324D01*
X41464240Y37117838D01*
X41491324Y37028554D01*
X41596716Y36831377D01*
X41738551Y36658551D01*
X41781865Y36623004D01*
X43608009Y34796859D01*
X43643551Y34753551D01*
X43794873Y34629364D01*
X43816377Y34611716D01*
X44013553Y34506324D01*
X44227501Y34441423D01*
X44450000Y34419509D01*
X44505752Y34425000D01*
X45439324Y34425000D01*
X45381159Y34339646D01*
X45271672Y34081996D01*
X45254990Y34002060D01*
X45377148Y33782000D01*
X46863000Y33782000D01*
X46863000Y33802000D01*
X47117000Y33802000D01*
X47117000Y33782000D01*
X48602852Y33782000D01*
X48725010Y34002060D01*
X48708328Y34081996D01*
X48598841Y34339646D01*
X48441192Y34570986D01*
X48241440Y34767125D01*
X48007262Y34920526D01*
X47990955Y34927107D01*
X48139667Y35006595D01*
X48356255Y35184345D01*
X48534005Y35400933D01*
X48666084Y35648037D01*
X48747419Y35916161D01*
X48774882Y36195000D01*
X48747419Y36473839D01*
X48666084Y36741963D01*
X48534005Y36989067D01*
X48356255Y37205655D01*
X48139667Y37383405D01*
X47987013Y37465000D01*
X48139667Y37546595D01*
X48356255Y37724345D01*
X48534005Y37940933D01*
X48666084Y38188037D01*
X48747419Y38456161D01*
X48774882Y38735000D01*
X48747419Y39013839D01*
X48666084Y39281963D01*
X48534005Y39529067D01*
X48356255Y39745655D01*
X48219326Y39858030D01*
X48257482Y39861788D01*
X48377180Y39898098D01*
X48487494Y39957063D01*
X48584185Y40036415D01*
X48663537Y40133106D01*
X48722502Y40243420D01*
X48758812Y40363118D01*
X48771072Y40487600D01*
X48771072Y42062400D01*
X48758812Y42186882D01*
X48722502Y42306580D01*
X48663537Y42416894D01*
X48584185Y42513585D01*
X48487494Y42592937D01*
X48377180Y42651902D01*
X48257482Y42688212D01*
X48133000Y42700472D01*
X45847000Y42700472D01*
X45722518Y42688212D01*
X45602820Y42651902D01*
X45492506Y42592937D01*
X45395815Y42513585D01*
X45316463Y42416894D01*
X45257498Y42306580D01*
X45221188Y42186882D01*
X45208928Y42062400D01*
X45208928Y40487600D01*
X45221188Y40363118D01*
X45257498Y40243420D01*
X45316463Y40133106D01*
X45395815Y40036415D01*
X45492506Y39957063D01*
X45602820Y39898098D01*
X45722518Y39861788D01*
X45760674Y39858030D01*
X45623745Y39745655D01*
X45445995Y39529067D01*
X45313916Y39281963D01*
X45232581Y39013839D01*
X45205118Y38735000D01*
X45232581Y38456161D01*
X45313916Y38188037D01*
X45445995Y37940933D01*
X45623745Y37724345D01*
X45840333Y37546595D01*
X45992987Y37465000D01*
X45840333Y37383405D01*
X45623745Y37205655D01*
X45445995Y36989067D01*
X45313916Y36741963D01*
X45299670Y36695000D01*
X44920132Y36695000D01*
X43680000Y37935131D01*
X43680000Y44618465D01*
X46068070Y44618465D01*
X46158098Y44358919D01*
X46439616Y44222776D01*
X46742286Y44144171D01*
X47054474Y44126123D01*
X47364185Y44169328D01*
X47659516Y44272123D01*
X47821902Y44358919D01*
X47911930Y44618465D01*
X46990000Y45540395D01*
X46068070Y44618465D01*
X43680000Y44618465D01*
X43680000Y48440869D01*
X45386009Y46734859D01*
X45421551Y46691551D01*
X45594377Y46549716D01*
X45620984Y46535494D01*
X45492776Y46270384D01*
X45414171Y45967714D01*
X45396123Y45655526D01*
X45439328Y45345815D01*
X45542123Y45050484D01*
X45628919Y44888098D01*
X45888465Y44798070D01*
X46810395Y45720000D01*
X46796253Y45734142D01*
X46975858Y45913747D01*
X46990000Y45899605D01*
X47004143Y45913747D01*
X47183748Y45734142D01*
X47169605Y45720000D01*
X48091535Y44798070D01*
X48351081Y44888098D01*
X48487224Y45169616D01*
X48537121Y45361747D01*
X49030001Y44868867D01*
X49030000Y37774752D01*
X49024509Y37719000D01*
X49032640Y37636448D01*
X49046423Y37496502D01*
X49111324Y37282554D01*
X49216716Y37085377D01*
X49358551Y36912551D01*
X49401864Y36877005D01*
X50290856Y35988012D01*
X50290861Y35988008D01*
X50847008Y35431860D01*
X50882551Y35388551D01*
X51021525Y35274498D01*
X51055377Y35246716D01*
X51252553Y35141324D01*
X51466501Y35076423D01*
X51689000Y35054509D01*
X51744752Y35060000D01*
X53395259Y35060000D01*
X53460333Y35006595D01*
X53612987Y34925000D01*
X53460333Y34843405D01*
X53243745Y34665655D01*
X53065995Y34449067D01*
X52933916Y34201963D01*
X52852581Y33933839D01*
X52825118Y33655000D01*
X52852581Y33376161D01*
X52933916Y33108037D01*
X53065995Y32860933D01*
X53243745Y32644345D01*
X53460333Y32466595D01*
X53707437Y32334516D01*
X53975561Y32253181D01*
X54184525Y32232600D01*
X55035475Y32232600D01*
X55244439Y32253181D01*
X55512563Y32334516D01*
X55759667Y32466595D01*
X55976255Y32644345D01*
X56154005Y32860933D01*
X56286084Y33108037D01*
X56367419Y33376161D01*
X56394882Y33655000D01*
X56367419Y33933839D01*
X56286084Y34201963D01*
X56154005Y34449067D01*
X55976255Y34665655D01*
X55759667Y34843405D01*
X55607013Y34925000D01*
X55759667Y35006595D01*
X55976255Y35184345D01*
X56154005Y35400933D01*
X56286084Y35648037D01*
X56367419Y35916161D01*
X56394882Y36195000D01*
X56367419Y36473839D01*
X56286084Y36741963D01*
X56154005Y36989067D01*
X55976255Y37205655D01*
X55759667Y37383405D01*
X55607013Y37465000D01*
X55759667Y37546595D01*
X55824741Y37600000D01*
X56282869Y37600000D01*
X57285000Y36597868D01*
X57285000Y36504752D01*
X57279509Y36449000D01*
X57285000Y36393249D01*
X57285000Y34131352D01*
X57279518Y34130812D01*
X57159820Y34094502D01*
X57049506Y34035537D01*
X56952815Y33956185D01*
X56873463Y33859494D01*
X56814498Y33749180D01*
X56778188Y33629482D01*
X56765928Y33505000D01*
X56765928Y31473000D01*
X56778188Y31348518D01*
X56805040Y31260000D01*
X15662714Y31260000D01*
X15337941Y31275096D01*
X15039574Y31317052D01*
X14752820Y31385046D01*
X14478952Y31477564D01*
X14219361Y31593084D01*
X13975496Y31730059D01*
X13748821Y31886905D01*
X13540786Y32062003D01*
X13352778Y32253730D01*
X13186127Y32460454D01*
X13042047Y32680628D01*
X12921651Y32912848D01*
X12825993Y33155895D01*
X12783990Y33307940D01*
X45254990Y33307940D01*
X45271672Y33228004D01*
X45381159Y32970354D01*
X45538808Y32739014D01*
X45738560Y32542875D01*
X45972738Y32389474D01*
X46232344Y32284707D01*
X46507400Y32232600D01*
X46863000Y32232600D01*
X46863000Y33528000D01*
X47117000Y33528000D01*
X47117000Y32232600D01*
X47472600Y32232600D01*
X47747656Y32284707D01*
X48007262Y32389474D01*
X48241440Y32542875D01*
X48441192Y32739014D01*
X48598841Y32970354D01*
X48708328Y33228004D01*
X48725010Y33307940D01*
X48602852Y33528000D01*
X47117000Y33528000D01*
X46863000Y33528000D01*
X45377148Y33528000D01*
X45254990Y33307940D01*
X12783990Y33307940D01*
X12756123Y33408812D01*
X12713177Y33670949D01*
X12697492Y33960586D01*
X12697492Y40373000D01*
X24575000Y40373000D01*
X24575000Y38373000D01*
X24688837Y37471197D01*
X24976419Y36608930D01*
X25426696Y35819336D01*
X26022363Y35132758D01*
X26740529Y34575581D01*
X27553595Y34169218D01*
X28359762Y33943650D01*
X29083000Y34025552D01*
X29083000Y40373000D01*
X29337000Y40373000D01*
X29337000Y34025552D01*
X30060238Y33943650D01*
X30866405Y34169218D01*
X31679471Y34575581D01*
X32397637Y35132758D01*
X32993304Y35819336D01*
X33443581Y36608930D01*
X33731163Y37471197D01*
X33845000Y38373000D01*
X33845000Y40373000D01*
X29337000Y40373000D01*
X29083000Y40373000D01*
X24575000Y40373000D01*
X12697492Y40373000D01*
X12697492Y42627000D01*
X24575000Y42627000D01*
X24575000Y40627000D01*
X29083000Y40627000D01*
X29083000Y46974448D01*
X29337000Y46974448D01*
X29337000Y40627000D01*
X33845000Y40627000D01*
X33845000Y42627000D01*
X33731163Y43528803D01*
X33443581Y44391070D01*
X32993304Y45180664D01*
X32397637Y45867242D01*
X31679471Y46424419D01*
X30866405Y46830782D01*
X30060238Y47056350D01*
X29337000Y46974448D01*
X29083000Y46974448D01*
X28359762Y47056350D01*
X27553595Y46830782D01*
X26740529Y46424419D01*
X26022363Y45867242D01*
X25426696Y45180664D01*
X24976419Y44391070D01*
X24688837Y43528803D01*
X24575000Y42627000D01*
X12697492Y42627000D01*
X12697492Y82727695D01*
X24575000Y82727695D01*
X24575000Y78272306D01*
X24642065Y77591382D01*
X24907099Y76717681D01*
X25337492Y75912474D01*
X25916702Y75206702D01*
X26622473Y74627492D01*
X27427680Y74197099D01*
X28301381Y73932065D01*
X29210000Y73842574D01*
X30118618Y73932065D01*
X30992319Y74197099D01*
X31797526Y74627492D01*
X32503298Y75206702D01*
X33082508Y75912473D01*
X33512901Y76717680D01*
X33777935Y77591381D01*
X33845000Y78272305D01*
X33845000Y82727695D01*
X33777935Y83408619D01*
X33512901Y84282320D01*
X33082508Y85087527D01*
X32503298Y85793298D01*
X31797527Y86372508D01*
X30992320Y86802901D01*
X30118619Y87067935D01*
X29210000Y87157426D01*
X28301382Y87067935D01*
X27427681Y86802901D01*
X26622474Y86372508D01*
X25916703Y85793298D01*
X25337493Y85087527D01*
X24907099Y84282320D01*
X24642065Y83408619D01*
X24575000Y82727695D01*
X12697492Y82727695D01*
X12697492Y86689414D01*
X12713177Y86979051D01*
X12756122Y87241185D01*
X12825994Y87494108D01*
X12921651Y87737152D01*
X13042047Y87969372D01*
X13186127Y88189546D01*
X13352778Y88396270D01*
X13540786Y88587997D01*
X13748821Y88763095D01*
X13975496Y88919941D01*
X14219361Y89056916D01*
X14478952Y89172436D01*
X14752820Y89264954D01*
X15039574Y89332948D01*
X15337941Y89374904D01*
X15662714Y89390000D01*
X67862270Y89390000D01*
X68187042Y89374904D01*
X68187042Y89374904D01*
G37*
X68187042Y89374904D02*
X68485411Y89332948D01*
X68772166Y89264953D01*
X69046031Y89172436D01*
X69305622Y89056916D01*
X69549483Y88919944D01*
X69776161Y88763095D01*
X69984202Y88587992D01*
X70172205Y88396270D01*
X70338856Y88189547D01*
X70482940Y87969367D01*
X70603331Y87737156D01*
X70698991Y87494106D01*
X70768862Y87241184D01*
X70811807Y86979052D01*
X70827492Y86689414D01*
X70827492Y64127639D01*
X70231000Y64724131D01*
X70231000Y64932609D01*
X70167553Y65251579D01*
X70043097Y65552042D01*
X69862415Y65822451D01*
X69632451Y66052415D01*
X69362042Y66233097D01*
X69061579Y66357553D01*
X68742609Y66421000D01*
X68417391Y66421000D01*
X68098421Y66357553D01*
X67797958Y66233097D01*
X67527549Y66052415D01*
X67297585Y65822451D01*
X67116903Y65552042D01*
X66992447Y65251579D01*
X66929000Y64932609D01*
X66929000Y64607391D01*
X66992447Y64288421D01*
X67116903Y63987958D01*
X67297585Y63717549D01*
X67527549Y63487585D01*
X67797958Y63306903D01*
X68098421Y63182447D01*
X68417391Y63119000D01*
X68625869Y63119000D01*
X69350000Y62394868D01*
X69350000Y57348085D01*
X69061579Y57467553D01*
X68742609Y57531000D01*
X68417391Y57531000D01*
X68098421Y57467553D01*
X67797958Y57343097D01*
X67527549Y57162415D01*
X67297585Y56932451D01*
X67116903Y56662042D01*
X66992447Y56361579D01*
X66929000Y56042609D01*
X66929000Y55717391D01*
X66992447Y55398421D01*
X67116903Y55097958D01*
X67297585Y54827549D01*
X67527549Y54597585D01*
X67797958Y54416903D01*
X68098421Y54292447D01*
X68417391Y54229000D01*
X68742609Y54229000D01*
X69061579Y54292447D01*
X69350001Y54411915D01*
X69350001Y47998000D01*
X67925696Y47998000D01*
X68092042Y48066903D01*
X68362451Y48247585D01*
X68592415Y48477549D01*
X68773097Y48747958D01*
X68897553Y49048421D01*
X68961000Y49367391D01*
X68961000Y49692609D01*
X68897553Y50011579D01*
X68773097Y50312042D01*
X68592415Y50582451D01*
X68374866Y50800000D01*
X68592415Y51017549D01*
X68773097Y51287958D01*
X68897553Y51588421D01*
X68961000Y51907391D01*
X68961000Y52232609D01*
X68897553Y52551579D01*
X68773097Y52852042D01*
X68592415Y53122451D01*
X68362451Y53352415D01*
X68092042Y53533097D01*
X67791579Y53657553D01*
X67472609Y53721000D01*
X67147391Y53721000D01*
X66828421Y53657553D01*
X66527958Y53533097D01*
X66257549Y53352415D01*
X66027585Y53122451D01*
X65846903Y52852042D01*
X65722447Y52551579D01*
X65659000Y52232609D01*
X65659000Y51907391D01*
X65722447Y51588421D01*
X65846903Y51287958D01*
X66027585Y51017549D01*
X66245134Y50800000D01*
X66027585Y50582451D01*
X65846903Y50312042D01*
X65722447Y50011579D01*
X65659000Y49692609D01*
X65659000Y49367391D01*
X65722447Y49048421D01*
X65846903Y48747958D01*
X66027585Y48477549D01*
X66257549Y48247585D01*
X66527958Y48066903D01*
X66828421Y47942447D01*
X66830285Y47942076D01*
X66746553Y47916676D01*
X66549377Y47811284D01*
X66419856Y47704989D01*
X66419854Y47704987D01*
X66376551Y47669449D01*
X66341013Y47626146D01*
X65227845Y46512977D01*
X64986397Y46464950D01*
X64725225Y46356769D01*
X64490177Y46199715D01*
X64290285Y45999823D01*
X64135000Y45767422D01*
X63979715Y45999823D01*
X63779823Y46199715D01*
X63544775Y46356769D01*
X63283603Y46464950D01*
X63006345Y46520100D01*
X62723655Y46520100D01*
X62446397Y46464950D01*
X62185225Y46356769D01*
X61950177Y46199715D01*
X61750285Y45999823D01*
X61714000Y45945519D01*
X61714000Y47535869D01*
X64136146Y49958013D01*
X64179449Y49993551D01*
X64321284Y50166377D01*
X64426676Y50363553D01*
X64491577Y50577501D01*
X64508000Y50744248D01*
X64508000Y50744249D01*
X64513491Y50800000D01*
X64508000Y50855752D01*
X64508000Y66238248D01*
X64513491Y66294000D01*
X64491577Y66516499D01*
X64426676Y66730447D01*
X64321284Y66927623D01*
X64214989Y67057143D01*
X64179449Y67100449D01*
X64136140Y67135992D01*
X63452995Y67819136D01*
X63417449Y67862449D01*
X63244623Y68004284D01*
X63047447Y68109676D01*
X62833499Y68174577D01*
X62666752Y68191000D01*
X62666751Y68191000D01*
X62611000Y68196491D01*
X62555249Y68191000D01*
X61324967Y68191000D01*
X61466623Y68266716D01*
X61639449Y68408551D01*
X61674996Y68451865D01*
X63843132Y70620000D01*
X66110134Y70620000D01*
X66245134Y70485000D01*
X66027585Y70267451D01*
X65846903Y69997042D01*
X65722447Y69696579D01*
X65659000Y69377609D01*
X65659000Y69052391D01*
X65722447Y68733421D01*
X65846903Y68432958D01*
X66027585Y68162549D01*
X66257549Y67932585D01*
X66527958Y67751903D01*
X66828421Y67627447D01*
X67147391Y67564000D01*
X67472609Y67564000D01*
X67791579Y67627447D01*
X68092042Y67751903D01*
X68362451Y67932585D01*
X68592415Y68162549D01*
X68773097Y68432958D01*
X68897553Y68733421D01*
X68961000Y69052391D01*
X68961000Y69377609D01*
X68897553Y69696579D01*
X68773097Y69997042D01*
X68592415Y70267451D01*
X68374866Y70485000D01*
X68592415Y70702549D01*
X68773097Y70972958D01*
X68897553Y71273421D01*
X68961000Y71592391D01*
X68961000Y71917609D01*
X68897553Y72236579D01*
X68773097Y72537042D01*
X68592415Y72807451D01*
X68362451Y73037415D01*
X68092042Y73218097D01*
X67791579Y73342553D01*
X67472609Y73406000D01*
X67147391Y73406000D01*
X66828421Y73342553D01*
X66527958Y73218097D01*
X66257549Y73037415D01*
X66110134Y72890000D01*
X63428741Y72890000D01*
X63372999Y72895490D01*
X63317257Y72890000D01*
X63317248Y72890000D01*
X63150501Y72873577D01*
X62936553Y72808676D01*
X62739377Y72703284D01*
X62566551Y72561449D01*
X62531009Y72518141D01*
X60362869Y70350000D01*
X58984866Y70350000D01*
X58849866Y70485000D01*
X59067415Y70702549D01*
X59248097Y70972958D01*
X59372553Y71273421D01*
X59436000Y71592391D01*
X59436000Y71917609D01*
X59372553Y72236579D01*
X59248097Y72537042D01*
X59067415Y72807451D01*
X58837451Y73037415D01*
X58567042Y73218097D01*
X58266579Y73342553D01*
X57947609Y73406000D01*
X57622391Y73406000D01*
X57303421Y73342553D01*
X57002958Y73218097D01*
X56732549Y73037415D01*
X56502585Y72807451D01*
X56321903Y72537042D01*
X56197447Y72236579D01*
X56134000Y71917609D01*
X56134000Y71592391D01*
X56197447Y71273421D01*
X56321903Y70972958D01*
X56502585Y70702549D01*
X56720134Y70485000D01*
X56502585Y70267451D01*
X56321903Y69997042D01*
X56197447Y69696579D01*
X56134000Y69377609D01*
X56134000Y69052391D01*
X56197447Y68733421D01*
X56321903Y68432958D01*
X56483575Y68191000D01*
X53937132Y68191000D01*
X52570000Y69558131D01*
X52570000Y74580961D01*
X57698096Y74580961D01*
X57715633Y74498182D01*
X57826285Y74238354D01*
X57985500Y74005105D01*
X58187161Y73807399D01*
X58423517Y73652834D01*
X58685486Y73547350D01*
X58963000Y73495000D01*
X59563000Y73495000D01*
X59563000Y74803000D01*
X59817000Y74803000D01*
X59817000Y73495000D01*
X60417000Y73495000D01*
X60694514Y73547350D01*
X60956483Y73652834D01*
X61192839Y73807399D01*
X61394500Y74005105D01*
X61553715Y74238354D01*
X61664367Y74498182D01*
X61681904Y74580961D01*
X61559915Y74803000D01*
X59817000Y74803000D01*
X59563000Y74803000D01*
X57820085Y74803000D01*
X57698096Y74580961D01*
X52570000Y74580961D01*
X52570000Y75279039D01*
X57698096Y75279039D01*
X57820085Y75057000D01*
X59563000Y75057000D01*
X59563000Y75077000D01*
X59817000Y75077000D01*
X59817000Y75057000D01*
X61559915Y75057000D01*
X61681904Y75279039D01*
X61664367Y75361818D01*
X61553715Y75621646D01*
X61394500Y75854895D01*
X61192839Y76052601D01*
X60956483Y76207166D01*
X60694514Y76312650D01*
X60417000Y76365000D01*
X58963000Y76365000D01*
X58685486Y76312650D01*
X58423517Y76207166D01*
X58187161Y76052601D01*
X57985500Y75854895D01*
X57826285Y75621646D01*
X57715633Y75361818D01*
X57698096Y75279039D01*
X52570000Y75279039D01*
X52570000Y78175134D01*
X52717415Y78322549D01*
X52898097Y78592958D01*
X53022553Y78893421D01*
X53086000Y79212391D01*
X53086000Y79537609D01*
X53022553Y79856579D01*
X52898097Y80157042D01*
X52717415Y80427451D01*
X52487451Y80657415D01*
X52217042Y80838097D01*
X51916579Y80962553D01*
X51597609Y81026000D01*
X51272391Y81026000D01*
X50953421Y80962553D01*
X50652958Y80838097D01*
X50382549Y80657415D01*
X50152585Y80427451D01*
X49971903Y80157042D01*
X49847447Y79856579D01*
X49784000Y79537609D01*
X49784000Y79212391D01*
X49847447Y78893421D01*
X49971903Y78592958D01*
X50152585Y78322549D01*
X50300001Y78175133D01*
X50300000Y69143752D01*
X50294509Y69088000D01*
X50300000Y69032249D01*
X50316423Y68865502D01*
X50381324Y68651554D01*
X50486716Y68454377D01*
X50628551Y68281551D01*
X50671865Y68246004D01*
X52625009Y66292859D01*
X52660551Y66249551D01*
X52833377Y66107716D01*
X53030553Y66002324D01*
X53244501Y65937423D01*
X53467000Y65915509D01*
X53522751Y65921000D01*
X54696134Y65921000D01*
X54597585Y65822451D01*
X54416903Y65552042D01*
X54292447Y65251579D01*
X54229000Y64932609D01*
X54229000Y64607391D01*
X54292447Y64288421D01*
X54416903Y63987958D01*
X54597585Y63717549D01*
X54827549Y63487585D01*
X55097958Y63306903D01*
X55398421Y63182447D01*
X55717391Y63119000D01*
X56042609Y63119000D01*
X56361579Y63182447D01*
X56662042Y63306903D01*
X56932451Y63487585D01*
X57162415Y63717549D01*
X57343097Y63987958D01*
X57467553Y64288421D01*
X57531000Y64607391D01*
X57531000Y64932609D01*
X57467553Y65251579D01*
X57343097Y65552042D01*
X57162415Y65822451D01*
X57063866Y65921000D01*
X59776134Y65921000D01*
X59677585Y65822451D01*
X59496903Y65552042D01*
X59372447Y65251579D01*
X59309000Y64932609D01*
X59309000Y64607391D01*
X59372447Y64288421D01*
X59496903Y63987958D01*
X59677585Y63717549D01*
X59907549Y63487585D01*
X60177958Y63306903D01*
X60478421Y63182447D01*
X60797391Y63119000D01*
X61122609Y63119000D01*
X61441579Y63182447D01*
X61742042Y63306903D01*
X62012451Y63487585D01*
X62238001Y63713135D01*
X62238000Y56936866D01*
X62012451Y57162415D01*
X61742042Y57343097D01*
X61441579Y57467553D01*
X61122609Y57531000D01*
X60797391Y57531000D01*
X60478421Y57467553D01*
X60177958Y57343097D01*
X59907549Y57162415D01*
X59677585Y56932451D01*
X59496903Y56662042D01*
X59372447Y56361579D01*
X59309000Y56042609D01*
X59309000Y55834132D01*
X58838869Y55364000D01*
X57580295Y55364000D01*
X57594553Y55398421D01*
X57658000Y55717391D01*
X57658000Y56042609D01*
X57594553Y56361579D01*
X57470097Y56662042D01*
X57289415Y56932451D01*
X57059451Y57162415D01*
X56789042Y57343097D01*
X56488579Y57467553D01*
X56169609Y57531000D01*
X55844391Y57531000D01*
X55525421Y57467553D01*
X55224958Y57343097D01*
X54954549Y57162415D01*
X54724585Y56932451D01*
X54543903Y56662042D01*
X54419447Y56361579D01*
X54356000Y56042609D01*
X54356000Y55717391D01*
X54419447Y55398421D01*
X54543903Y55097958D01*
X54620716Y54983000D01*
X53683132Y54983000D01*
X52951000Y55715131D01*
X52951000Y56586248D01*
X52956491Y56642000D01*
X52934577Y56864499D01*
X52869676Y57078447D01*
X52764284Y57275623D01*
X52657989Y57405144D01*
X52657987Y57405146D01*
X52622449Y57448449D01*
X52579146Y57483987D01*
X50879995Y59183136D01*
X50844449Y59226449D01*
X50671623Y59368284D01*
X50474447Y59473676D01*
X50260499Y59538577D01*
X50093752Y59555000D01*
X50093751Y59555000D01*
X50038000Y59560491D01*
X49982249Y59555000D01*
X46172248Y59555000D01*
X46005501Y59538577D01*
X45791553Y59473676D01*
X45594377Y59368284D01*
X45421551Y59226449D01*
X45279716Y59053623D01*
X45204000Y58911967D01*
X45204000Y61757609D01*
X56134000Y61757609D01*
X56134000Y61432391D01*
X56197447Y61113421D01*
X56321903Y60812958D01*
X56502585Y60542549D01*
X56720134Y60325000D01*
X56502585Y60107451D01*
X56321903Y59837042D01*
X56197447Y59536579D01*
X56134000Y59217609D01*
X56134000Y58892391D01*
X56197447Y58573421D01*
X56321903Y58272958D01*
X56502585Y58002549D01*
X56732549Y57772585D01*
X57002958Y57591903D01*
X57303421Y57467447D01*
X57622391Y57404000D01*
X57947609Y57404000D01*
X58266579Y57467447D01*
X58567042Y57591903D01*
X58837451Y57772585D01*
X59067415Y58002549D01*
X59248097Y58272958D01*
X59372553Y58573421D01*
X59436000Y58892391D01*
X59436000Y59217609D01*
X59372553Y59536579D01*
X59248097Y59837042D01*
X59067415Y60107451D01*
X58849866Y60325000D01*
X59067415Y60542549D01*
X59248097Y60812958D01*
X59372553Y61113421D01*
X59436000Y61432391D01*
X59436000Y61757609D01*
X59372553Y62076579D01*
X59248097Y62377042D01*
X59067415Y62647451D01*
X58837451Y62877415D01*
X58567042Y63058097D01*
X58266579Y63182553D01*
X57947609Y63246000D01*
X57622391Y63246000D01*
X57303421Y63182553D01*
X57002958Y63058097D01*
X56732549Y62877415D01*
X56502585Y62647451D01*
X56321903Y62377042D01*
X56197447Y62076579D01*
X56134000Y61757609D01*
X45204000Y61757609D01*
X45204000Y62902869D01*
X45936132Y63635000D01*
X47060134Y63635000D01*
X47207549Y63487585D01*
X47477958Y63306903D01*
X47778421Y63182447D01*
X48097391Y63119000D01*
X48422609Y63119000D01*
X48741579Y63182447D01*
X49042042Y63306903D01*
X49312451Y63487585D01*
X49542415Y63717549D01*
X49723097Y63987958D01*
X49847553Y64288421D01*
X49911000Y64607391D01*
X49911000Y64932609D01*
X49847553Y65251579D01*
X49723097Y65552042D01*
X49542415Y65822451D01*
X49312451Y66052415D01*
X49042042Y66233097D01*
X48741579Y66357553D01*
X48422609Y66421000D01*
X48097391Y66421000D01*
X47778421Y66357553D01*
X47477958Y66233097D01*
X47207549Y66052415D01*
X47060134Y65905000D01*
X45521741Y65905000D01*
X45465999Y65910490D01*
X45410257Y65905000D01*
X45410248Y65905000D01*
X45243501Y65888577D01*
X45029553Y65823676D01*
X44832377Y65718284D01*
X44659551Y65576449D01*
X44624008Y65533140D01*
X43305860Y64214991D01*
X43262552Y64179449D01*
X43120717Y64006623D01*
X43108399Y63983577D01*
X43015324Y63809446D01*
X42950423Y63595498D01*
X42928509Y63373000D01*
X42934001Y63317239D01*
X42934001Y56821069D01*
X42767499Y56871577D01*
X42545000Y56893491D01*
X42322502Y56871577D01*
X42108554Y56806676D01*
X41926514Y56709374D01*
X41781623Y56828284D01*
X41584446Y56933676D01*
X41370498Y56998577D01*
X41148000Y57020491D01*
X40925501Y56998577D01*
X40711553Y56933676D01*
X40514377Y56828284D01*
X40378000Y56716362D01*
X40378000Y71917609D01*
X46609000Y71917609D01*
X46609000Y71592391D01*
X46672447Y71273421D01*
X46796903Y70972958D01*
X46977585Y70702549D01*
X47195134Y70485000D01*
X46977585Y70267451D01*
X46796903Y69997042D01*
X46672447Y69696579D01*
X46609000Y69377609D01*
X46609000Y69052391D01*
X46672447Y68733421D01*
X46796903Y68432958D01*
X46977585Y68162549D01*
X47207549Y67932585D01*
X47477958Y67751903D01*
X47778421Y67627447D01*
X48097391Y67564000D01*
X48422609Y67564000D01*
X48741579Y67627447D01*
X49042042Y67751903D01*
X49312451Y67932585D01*
X49542415Y68162549D01*
X49723097Y68432958D01*
X49847553Y68733421D01*
X49911000Y69052391D01*
X49911000Y69377609D01*
X49847553Y69696579D01*
X49723097Y69997042D01*
X49542415Y70267451D01*
X49324866Y70485000D01*
X49542415Y70702549D01*
X49723097Y70972958D01*
X49847553Y71273421D01*
X49911000Y71592391D01*
X49911000Y71917609D01*
X49847553Y72236579D01*
X49723097Y72537042D01*
X49542415Y72807451D01*
X49312451Y73037415D01*
X49042042Y73218097D01*
X48741579Y73342553D01*
X48422609Y73406000D01*
X48097391Y73406000D01*
X47778421Y73342553D01*
X47477958Y73218097D01*
X47207549Y73037415D01*
X46977585Y72807451D01*
X46796903Y72537042D01*
X46672447Y72236579D01*
X46609000Y71917609D01*
X40378000Y71917609D01*
X40378000Y77784626D01*
X45720000Y77784626D01*
X45720000Y77409374D01*
X45793209Y77041332D01*
X45936811Y76694644D01*
X46145290Y76382634D01*
X46410634Y76117290D01*
X46722644Y75908811D01*
X47069332Y75765209D01*
X47437374Y75692000D01*
X47812626Y75692000D01*
X48180668Y75765209D01*
X48527356Y75908811D01*
X48839366Y76117290D01*
X49104710Y76382634D01*
X49313189Y76694644D01*
X49456791Y77041332D01*
X49530000Y77409374D01*
X49530000Y77784626D01*
X49456791Y78152668D01*
X49313189Y78499356D01*
X49104710Y78811366D01*
X48839366Y79076710D01*
X48527356Y79285189D01*
X48180668Y79428791D01*
X47812626Y79502000D01*
X47437374Y79502000D01*
X47069332Y79428791D01*
X46722644Y79285189D01*
X46410634Y79076710D01*
X46145290Y78811366D01*
X45936811Y78499356D01*
X45793209Y78152668D01*
X45720000Y77784626D01*
X40378000Y77784626D01*
X40378000Y81952869D01*
X43045131Y84620000D01*
X57651928Y84620000D01*
X57651928Y83020000D01*
X57664188Y82895518D01*
X57700498Y82775820D01*
X57759463Y82665506D01*
X57838815Y82568815D01*
X57935506Y82489463D01*
X58045820Y82430498D01*
X58165518Y82394188D01*
X58290000Y82381928D01*
X61090000Y82381928D01*
X61214482Y82394188D01*
X61334180Y82430498D01*
X61444494Y82489463D01*
X61541185Y82568815D01*
X61620537Y82665506D01*
X61679502Y82775820D01*
X61715812Y82895518D01*
X61728072Y83020000D01*
X61728072Y84620000D01*
X61715812Y84744482D01*
X61679502Y84864180D01*
X61620537Y84974494D01*
X61541185Y85071185D01*
X61444494Y85150537D01*
X61334180Y85209502D01*
X61214482Y85245812D01*
X61090000Y85258072D01*
X58290000Y85258072D01*
X58165518Y85245812D01*
X58045820Y85209502D01*
X57935506Y85150537D01*
X57838815Y85071185D01*
X57759463Y84974494D01*
X57700498Y84864180D01*
X57664188Y84744482D01*
X57651928Y84620000D01*
X43045131Y84620000D01*
X44285132Y85860000D01*
X46092259Y85860000D01*
X46145290Y85780634D01*
X46410634Y85515290D01*
X46722644Y85306811D01*
X47069332Y85163209D01*
X47437374Y85090000D01*
X47812626Y85090000D01*
X48180668Y85163209D01*
X48527356Y85306811D01*
X48839366Y85515290D01*
X49104710Y85780634D01*
X49313189Y86092644D01*
X49456791Y86439332D01*
X49530000Y86807374D01*
X49530000Y87157609D01*
X49784000Y87157609D01*
X49784000Y86832391D01*
X49847447Y86513421D01*
X49971903Y86212958D01*
X50152585Y85942549D01*
X50382549Y85712585D01*
X50652958Y85531903D01*
X50953421Y85407447D01*
X51272391Y85344000D01*
X51597609Y85344000D01*
X51916579Y85407447D01*
X52217042Y85531903D01*
X52487451Y85712585D01*
X52717415Y85942549D01*
X52898097Y86212958D01*
X53022553Y86513421D01*
X53086000Y86832391D01*
X53086000Y87157609D01*
X53022553Y87476579D01*
X52898097Y87777042D01*
X52717415Y88047451D01*
X52487451Y88277415D01*
X52259093Y88430000D01*
X57651928Y88430000D01*
X57651928Y86830000D01*
X57664188Y86705518D01*
X57700498Y86585820D01*
X57759463Y86475506D01*
X57838815Y86378815D01*
X57935506Y86299463D01*
X58045820Y86240498D01*
X58165518Y86204188D01*
X58290000Y86191928D01*
X61090000Y86191928D01*
X61214482Y86204188D01*
X61334180Y86240498D01*
X61444494Y86299463D01*
X61541185Y86378815D01*
X61620537Y86475506D01*
X61679502Y86585820D01*
X61715812Y86705518D01*
X61728072Y86830000D01*
X61728072Y88430000D01*
X61715812Y88554482D01*
X61679502Y88674180D01*
X61620537Y88784494D01*
X61541185Y88881185D01*
X61444494Y88960537D01*
X61334180Y89019502D01*
X61214482Y89055812D01*
X61090000Y89068072D01*
X58290000Y89068072D01*
X58165518Y89055812D01*
X58045820Y89019502D01*
X57935506Y88960537D01*
X57838815Y88881185D01*
X57759463Y88784494D01*
X57700498Y88674180D01*
X57664188Y88554482D01*
X57651928Y88430000D01*
X52259093Y88430000D01*
X52217042Y88458097D01*
X51916579Y88582553D01*
X51597609Y88646000D01*
X51272391Y88646000D01*
X50953421Y88582553D01*
X50652958Y88458097D01*
X50382549Y88277415D01*
X50152585Y88047451D01*
X49971903Y87777042D01*
X49847447Y87476579D01*
X49784000Y87157609D01*
X49530000Y87157609D01*
X49530000Y87182626D01*
X49456791Y87550668D01*
X49313189Y87897356D01*
X49104710Y88209366D01*
X48839366Y88474710D01*
X48527356Y88683189D01*
X48180668Y88826791D01*
X47812626Y88900000D01*
X47437374Y88900000D01*
X47069332Y88826791D01*
X46722644Y88683189D01*
X46410634Y88474710D01*
X46145290Y88209366D01*
X46092259Y88130000D01*
X43870741Y88130000D01*
X43814999Y88135490D01*
X43759257Y88130000D01*
X43759248Y88130000D01*
X43592501Y88113577D01*
X43378553Y88048676D01*
X43181377Y87943284D01*
X43008551Y87801449D01*
X42973009Y87758141D01*
X38479865Y83264996D01*
X38436551Y83229449D01*
X38294716Y83056623D01*
X38208605Y82895518D01*
X38189324Y82859446D01*
X38124423Y82645498D01*
X38102509Y82423000D01*
X38108000Y82367249D01*
X38108001Y43743761D01*
X38108000Y43743751D01*
X38108000Y43124248D01*
X38124423Y42957501D01*
X38189324Y42743553D01*
X38294717Y42546377D01*
X38436552Y42373551D01*
X38609378Y42231716D01*
X38806554Y42126324D01*
X39020502Y42061423D01*
X39243000Y42039509D01*
X39465499Y42061423D01*
X39679447Y42126324D01*
X39876623Y42231716D01*
X40013001Y42343639D01*
X40013001Y38815608D01*
X39945717Y38733622D01*
X39840324Y38536446D01*
X39775423Y38322498D01*
X39753509Y38100000D01*
X39775423Y37877502D01*
X39840324Y37663554D01*
X39945717Y37466378D01*
X40087552Y37293552D01*
X40260378Y37151717D01*
X40457554Y37046324D01*
X40671502Y36981423D01*
X40894000Y36959509D01*
X41116498Y36981423D01*
X41330446Y37046324D01*
X41464240Y37117838D01*
X41491324Y37028554D01*
X41596716Y36831377D01*
X41738551Y36658551D01*
X41781865Y36623004D01*
X43608009Y34796859D01*
X43643551Y34753551D01*
X43794873Y34629364D01*
X43816377Y34611716D01*
X44013553Y34506324D01*
X44227501Y34441423D01*
X44450000Y34419509D01*
X44505752Y34425000D01*
X45439324Y34425000D01*
X45381159Y34339646D01*
X45271672Y34081996D01*
X45254990Y34002060D01*
X45377148Y33782000D01*
X46863000Y33782000D01*
X46863000Y33802000D01*
X47117000Y33802000D01*
X47117000Y33782000D01*
X48602852Y33782000D01*
X48725010Y34002060D01*
X48708328Y34081996D01*
X48598841Y34339646D01*
X48441192Y34570986D01*
X48241440Y34767125D01*
X48007262Y34920526D01*
X47990955Y34927107D01*
X48139667Y35006595D01*
X48356255Y35184345D01*
X48534005Y35400933D01*
X48666084Y35648037D01*
X48747419Y35916161D01*
X48774882Y36195000D01*
X48747419Y36473839D01*
X48666084Y36741963D01*
X48534005Y36989067D01*
X48356255Y37205655D01*
X48139667Y37383405D01*
X47987013Y37465000D01*
X48139667Y37546595D01*
X48356255Y37724345D01*
X48534005Y37940933D01*
X48666084Y38188037D01*
X48747419Y38456161D01*
X48774882Y38735000D01*
X48747419Y39013839D01*
X48666084Y39281963D01*
X48534005Y39529067D01*
X48356255Y39745655D01*
X48219326Y39858030D01*
X48257482Y39861788D01*
X48377180Y39898098D01*
X48487494Y39957063D01*
X48584185Y40036415D01*
X48663537Y40133106D01*
X48722502Y40243420D01*
X48758812Y40363118D01*
X48771072Y40487600D01*
X48771072Y42062400D01*
X48758812Y42186882D01*
X48722502Y42306580D01*
X48663537Y42416894D01*
X48584185Y42513585D01*
X48487494Y42592937D01*
X48377180Y42651902D01*
X48257482Y42688212D01*
X48133000Y42700472D01*
X45847000Y42700472D01*
X45722518Y42688212D01*
X45602820Y42651902D01*
X45492506Y42592937D01*
X45395815Y42513585D01*
X45316463Y42416894D01*
X45257498Y42306580D01*
X45221188Y42186882D01*
X45208928Y42062400D01*
X45208928Y40487600D01*
X45221188Y40363118D01*
X45257498Y40243420D01*
X45316463Y40133106D01*
X45395815Y40036415D01*
X45492506Y39957063D01*
X45602820Y39898098D01*
X45722518Y39861788D01*
X45760674Y39858030D01*
X45623745Y39745655D01*
X45445995Y39529067D01*
X45313916Y39281963D01*
X45232581Y39013839D01*
X45205118Y38735000D01*
X45232581Y38456161D01*
X45313916Y38188037D01*
X45445995Y37940933D01*
X45623745Y37724345D01*
X45840333Y37546595D01*
X45992987Y37465000D01*
X45840333Y37383405D01*
X45623745Y37205655D01*
X45445995Y36989067D01*
X45313916Y36741963D01*
X45299670Y36695000D01*
X44920132Y36695000D01*
X43680000Y37935131D01*
X43680000Y44618465D01*
X46068070Y44618465D01*
X46158098Y44358919D01*
X46439616Y44222776D01*
X46742286Y44144171D01*
X47054474Y44126123D01*
X47364185Y44169328D01*
X47659516Y44272123D01*
X47821902Y44358919D01*
X47911930Y44618465D01*
X46990000Y45540395D01*
X46068070Y44618465D01*
X43680000Y44618465D01*
X43680000Y48440869D01*
X45386009Y46734859D01*
X45421551Y46691551D01*
X45594377Y46549716D01*
X45620984Y46535494D01*
X45492776Y46270384D01*
X45414171Y45967714D01*
X45396123Y45655526D01*
X45439328Y45345815D01*
X45542123Y45050484D01*
X45628919Y44888098D01*
X45888465Y44798070D01*
X46810395Y45720000D01*
X46796253Y45734142D01*
X46975858Y45913747D01*
X46990000Y45899605D01*
X47004143Y45913747D01*
X47183748Y45734142D01*
X47169605Y45720000D01*
X48091535Y44798070D01*
X48351081Y44888098D01*
X48487224Y45169616D01*
X48537121Y45361747D01*
X49030001Y44868867D01*
X49030000Y37774752D01*
X49024509Y37719000D01*
X49032640Y37636448D01*
X49046423Y37496502D01*
X49111324Y37282554D01*
X49216716Y37085377D01*
X49358551Y36912551D01*
X49401864Y36877005D01*
X50290856Y35988012D01*
X50290861Y35988008D01*
X50847008Y35431860D01*
X50882551Y35388551D01*
X51021525Y35274498D01*
X51055377Y35246716D01*
X51252553Y35141324D01*
X51466501Y35076423D01*
X51689000Y35054509D01*
X51744752Y35060000D01*
X53395259Y35060000D01*
X53460333Y35006595D01*
X53612987Y34925000D01*
X53460333Y34843405D01*
X53243745Y34665655D01*
X53065995Y34449067D01*
X52933916Y34201963D01*
X52852581Y33933839D01*
X52825118Y33655000D01*
X52852581Y33376161D01*
X52933916Y33108037D01*
X53065995Y32860933D01*
X53243745Y32644345D01*
X53460333Y32466595D01*
X53707437Y32334516D01*
X53975561Y32253181D01*
X54184525Y32232600D01*
X55035475Y32232600D01*
X55244439Y32253181D01*
X55512563Y32334516D01*
X55759667Y32466595D01*
X55976255Y32644345D01*
X56154005Y32860933D01*
X56286084Y33108037D01*
X56367419Y33376161D01*
X56394882Y33655000D01*
X56367419Y33933839D01*
X56286084Y34201963D01*
X56154005Y34449067D01*
X55976255Y34665655D01*
X55759667Y34843405D01*
X55607013Y34925000D01*
X55759667Y35006595D01*
X55976255Y35184345D01*
X56154005Y35400933D01*
X56286084Y35648037D01*
X56367419Y35916161D01*
X56394882Y36195000D01*
X56367419Y36473839D01*
X56286084Y36741963D01*
X56154005Y36989067D01*
X55976255Y37205655D01*
X55759667Y37383405D01*
X55607013Y37465000D01*
X55759667Y37546595D01*
X55824741Y37600000D01*
X56282869Y37600000D01*
X57285000Y36597868D01*
X57285000Y36504752D01*
X57279509Y36449000D01*
X57285000Y36393249D01*
X57285000Y34131352D01*
X57279518Y34130812D01*
X57159820Y34094502D01*
X57049506Y34035537D01*
X56952815Y33956185D01*
X56873463Y33859494D01*
X56814498Y33749180D01*
X56778188Y33629482D01*
X56765928Y33505000D01*
X56765928Y31473000D01*
X56778188Y31348518D01*
X56805040Y31260000D01*
X15662714Y31260000D01*
X15337941Y31275096D01*
X15039574Y31317052D01*
X14752820Y31385046D01*
X14478952Y31477564D01*
X14219361Y31593084D01*
X13975496Y31730059D01*
X13748821Y31886905D01*
X13540786Y32062003D01*
X13352778Y32253730D01*
X13186127Y32460454D01*
X13042047Y32680628D01*
X12921651Y32912848D01*
X12825993Y33155895D01*
X12783990Y33307940D01*
X45254990Y33307940D01*
X45271672Y33228004D01*
X45381159Y32970354D01*
X45538808Y32739014D01*
X45738560Y32542875D01*
X45972738Y32389474D01*
X46232344Y32284707D01*
X46507400Y32232600D01*
X46863000Y32232600D01*
X46863000Y33528000D01*
X47117000Y33528000D01*
X47117000Y32232600D01*
X47472600Y32232600D01*
X47747656Y32284707D01*
X48007262Y32389474D01*
X48241440Y32542875D01*
X48441192Y32739014D01*
X48598841Y32970354D01*
X48708328Y33228004D01*
X48725010Y33307940D01*
X48602852Y33528000D01*
X47117000Y33528000D01*
X46863000Y33528000D01*
X45377148Y33528000D01*
X45254990Y33307940D01*
X12783990Y33307940D01*
X12756123Y33408812D01*
X12713177Y33670949D01*
X12697492Y33960586D01*
X12697492Y40373000D01*
X24575000Y40373000D01*
X24575000Y38373000D01*
X24688837Y37471197D01*
X24976419Y36608930D01*
X25426696Y35819336D01*
X26022363Y35132758D01*
X26740529Y34575581D01*
X27553595Y34169218D01*
X28359762Y33943650D01*
X29083000Y34025552D01*
X29083000Y40373000D01*
X29337000Y40373000D01*
X29337000Y34025552D01*
X30060238Y33943650D01*
X30866405Y34169218D01*
X31679471Y34575581D01*
X32397637Y35132758D01*
X32993304Y35819336D01*
X33443581Y36608930D01*
X33731163Y37471197D01*
X33845000Y38373000D01*
X33845000Y40373000D01*
X29337000Y40373000D01*
X29083000Y40373000D01*
X24575000Y40373000D01*
X12697492Y40373000D01*
X12697492Y42627000D01*
X24575000Y42627000D01*
X24575000Y40627000D01*
X29083000Y40627000D01*
X29083000Y46974448D01*
X29337000Y46974448D01*
X29337000Y40627000D01*
X33845000Y40627000D01*
X33845000Y42627000D01*
X33731163Y43528803D01*
X33443581Y44391070D01*
X32993304Y45180664D01*
X32397637Y45867242D01*
X31679471Y46424419D01*
X30866405Y46830782D01*
X30060238Y47056350D01*
X29337000Y46974448D01*
X29083000Y46974448D01*
X28359762Y47056350D01*
X27553595Y46830782D01*
X26740529Y46424419D01*
X26022363Y45867242D01*
X25426696Y45180664D01*
X24976419Y44391070D01*
X24688837Y43528803D01*
X24575000Y42627000D01*
X12697492Y42627000D01*
X12697492Y82727695D01*
X24575000Y82727695D01*
X24575000Y78272306D01*
X24642065Y77591382D01*
X24907099Y76717681D01*
X25337492Y75912474D01*
X25916702Y75206702D01*
X26622473Y74627492D01*
X27427680Y74197099D01*
X28301381Y73932065D01*
X29210000Y73842574D01*
X30118618Y73932065D01*
X30992319Y74197099D01*
X31797526Y74627492D01*
X32503298Y75206702D01*
X33082508Y75912473D01*
X33512901Y76717680D01*
X33777935Y77591381D01*
X33845000Y78272305D01*
X33845000Y82727695D01*
X33777935Y83408619D01*
X33512901Y84282320D01*
X33082508Y85087527D01*
X32503298Y85793298D01*
X31797527Y86372508D01*
X30992320Y86802901D01*
X30118619Y87067935D01*
X29210000Y87157426D01*
X28301382Y87067935D01*
X27427681Y86802901D01*
X26622474Y86372508D01*
X25916703Y85793298D01*
X25337493Y85087527D01*
X24907099Y84282320D01*
X24642065Y83408619D01*
X24575000Y82727695D01*
X12697492Y82727695D01*
X12697492Y86689414D01*
X12713177Y86979051D01*
X12756122Y87241185D01*
X12825994Y87494108D01*
X12921651Y87737152D01*
X13042047Y87969372D01*
X13186127Y88189546D01*
X13352778Y88396270D01*
X13540786Y88587997D01*
X13748821Y88763095D01*
X13975496Y88919941D01*
X14219361Y89056916D01*
X14478952Y89172436D01*
X14752820Y89264954D01*
X15039574Y89332948D01*
X15337941Y89374904D01*
X15662714Y89390000D01*
X67862270Y89390000D01*
X68187042Y89374904D01*
G36*
X62238000Y51270133D02*
G01*
X59815860Y48847991D01*
X59772552Y48812449D01*
X59630717Y48639623D01*
X59607695Y48596551D01*
X59525324Y48442446D01*
X59460423Y48228498D01*
X59438509Y48006000D01*
X59444001Y47950239D01*
X59444001Y47192608D01*
X59387217Y47135825D01*
X59289522Y47401860D01*
X58997179Y47544348D01*
X58682656Y47627064D01*
X58358038Y47646831D01*
X58035802Y47602888D01*
X57728330Y47496924D01*
X57550478Y47401860D01*
X57452782Y47135823D01*
X58420000Y46168605D01*
X58434143Y46182747D01*
X58613748Y46003142D01*
X58599605Y45989000D01*
X58613748Y45974857D01*
X58434143Y45795252D01*
X58420000Y45809395D01*
X57452782Y44842177D01*
X57550478Y44576140D01*
X57842821Y44433652D01*
X58157344Y44350936D01*
X58481962Y44331169D01*
X58804198Y44375112D01*
X59111670Y44481076D01*
X59289522Y44576140D01*
X59387217Y44842175D01*
X59444001Y44785392D01*
X59444000Y42491133D01*
X57737996Y44197136D01*
X57702449Y44240449D01*
X57529623Y44382284D01*
X57332447Y44487676D01*
X57118499Y44552577D01*
X56951752Y44569000D01*
X56951751Y44569000D01*
X56896000Y44574491D01*
X56840249Y44569000D01*
X53164064Y44569000D01*
X53303092Y44708028D01*
X53476824Y44968037D01*
X53596493Y45256943D01*
X53657500Y45563645D01*
X53657500Y45876355D01*
X53647419Y45927038D01*
X56762169Y45927038D01*
X56806112Y45604802D01*
X56912076Y45297330D01*
X57007140Y45119478D01*
X57273177Y45021782D01*
X58240395Y45989000D01*
X57273177Y46956218D01*
X57007140Y46858522D01*
X56864652Y46566179D01*
X56781936Y46251656D01*
X56762169Y45927038D01*
X53647419Y45927038D01*
X53596493Y46183057D01*
X53476824Y46471963D01*
X53303092Y46731972D01*
X53081972Y46953092D01*
X52821963Y47126824D01*
X52533057Y47246493D01*
X52226355Y47307500D01*
X51913645Y47307500D01*
X51606943Y47246493D01*
X51318037Y47126824D01*
X51058028Y46953092D01*
X50836908Y46731972D01*
X50663176Y46471963D01*
X50655559Y46453573D01*
X49118284Y47990847D01*
X49312451Y48120585D01*
X49459866Y48268000D01*
X52141249Y48268000D01*
X52197000Y48262509D01*
X52252751Y48268000D01*
X52252752Y48268000D01*
X52419499Y48284423D01*
X52633447Y48349324D01*
X52830623Y48454716D01*
X53003449Y48596551D01*
X53038996Y48639865D01*
X55334133Y50935000D01*
X56585134Y50935000D01*
X56720134Y50800000D01*
X56502585Y50582451D01*
X56321903Y50312042D01*
X56197447Y50011579D01*
X56134000Y49692609D01*
X56134000Y49367391D01*
X56197447Y49048421D01*
X56321903Y48747958D01*
X56502585Y48477549D01*
X56732549Y48247585D01*
X57002958Y48066903D01*
X57303421Y47942447D01*
X57622391Y47879000D01*
X57947609Y47879000D01*
X58266579Y47942447D01*
X58567042Y48066903D01*
X58837451Y48247585D01*
X59067415Y48477549D01*
X59248097Y48747958D01*
X59372553Y49048421D01*
X59436000Y49367391D01*
X59436000Y49692609D01*
X59372553Y50011579D01*
X59248097Y50312042D01*
X59067415Y50582451D01*
X58849866Y50800000D01*
X59067415Y51017549D01*
X59248097Y51287958D01*
X59372553Y51588421D01*
X59436000Y51907391D01*
X59436000Y52232609D01*
X59372553Y52551579D01*
X59248097Y52852042D01*
X59086425Y53094000D01*
X59253249Y53094000D01*
X59309000Y53088509D01*
X59364751Y53094000D01*
X59364752Y53094000D01*
X59531499Y53110423D01*
X59745447Y53175324D01*
X59942623Y53280716D01*
X60115449Y53422551D01*
X60150995Y53465864D01*
X60914132Y54229000D01*
X61122609Y54229000D01*
X61441579Y54292447D01*
X61742042Y54416903D01*
X62012451Y54597585D01*
X62238000Y54823134D01*
X62238000Y51270133D01*
X62238000Y51270133D01*
G37*
X62238000Y51270133D02*
X59815860Y48847991D01*
X59772552Y48812449D01*
X59630717Y48639623D01*
X59607695Y48596551D01*
X59525324Y48442446D01*
X59460423Y48228498D01*
X59438509Y48006000D01*
X59444001Y47950239D01*
X59444001Y47192608D01*
X59387217Y47135825D01*
X59289522Y47401860D01*
X58997179Y47544348D01*
X58682656Y47627064D01*
X58358038Y47646831D01*
X58035802Y47602888D01*
X57728330Y47496924D01*
X57550478Y47401860D01*
X57452782Y47135823D01*
X58420000Y46168605D01*
X58434143Y46182747D01*
X58613748Y46003142D01*
X58599605Y45989000D01*
X58613748Y45974857D01*
X58434143Y45795252D01*
X58420000Y45809395D01*
X57452782Y44842177D01*
X57550478Y44576140D01*
X57842821Y44433652D01*
X58157344Y44350936D01*
X58481962Y44331169D01*
X58804198Y44375112D01*
X59111670Y44481076D01*
X59289522Y44576140D01*
X59387217Y44842175D01*
X59444001Y44785392D01*
X59444000Y42491133D01*
X57737996Y44197136D01*
X57702449Y44240449D01*
X57529623Y44382284D01*
X57332447Y44487676D01*
X57118499Y44552577D01*
X56951752Y44569000D01*
X56951751Y44569000D01*
X56896000Y44574491D01*
X56840249Y44569000D01*
X53164064Y44569000D01*
X53303092Y44708028D01*
X53476824Y44968037D01*
X53596493Y45256943D01*
X53657500Y45563645D01*
X53657500Y45876355D01*
X53647419Y45927038D01*
X56762169Y45927038D01*
X56806112Y45604802D01*
X56912076Y45297330D01*
X57007140Y45119478D01*
X57273177Y45021782D01*
X58240395Y45989000D01*
X57273177Y46956218D01*
X57007140Y46858522D01*
X56864652Y46566179D01*
X56781936Y46251656D01*
X56762169Y45927038D01*
X53647419Y45927038D01*
X53596493Y46183057D01*
X53476824Y46471963D01*
X53303092Y46731972D01*
X53081972Y46953092D01*
X52821963Y47126824D01*
X52533057Y47246493D01*
X52226355Y47307500D01*
X51913645Y47307500D01*
X51606943Y47246493D01*
X51318037Y47126824D01*
X51058028Y46953092D01*
X50836908Y46731972D01*
X50663176Y46471963D01*
X50655559Y46453573D01*
X49118284Y47990847D01*
X49312451Y48120585D01*
X49459866Y48268000D01*
X52141249Y48268000D01*
X52197000Y48262509D01*
X52252751Y48268000D01*
X52252752Y48268000D01*
X52419499Y48284423D01*
X52633447Y48349324D01*
X52830623Y48454716D01*
X53003449Y48596551D01*
X53038996Y48639865D01*
X55334133Y50935000D01*
X56585134Y50935000D01*
X56720134Y50800000D01*
X56502585Y50582451D01*
X56321903Y50312042D01*
X56197447Y50011579D01*
X56134000Y49692609D01*
X56134000Y49367391D01*
X56197447Y49048421D01*
X56321903Y48747958D01*
X56502585Y48477549D01*
X56732549Y48247585D01*
X57002958Y48066903D01*
X57303421Y47942447D01*
X57622391Y47879000D01*
X57947609Y47879000D01*
X58266579Y47942447D01*
X58567042Y48066903D01*
X58837451Y48247585D01*
X59067415Y48477549D01*
X59248097Y48747958D01*
X59372553Y49048421D01*
X59436000Y49367391D01*
X59436000Y49692609D01*
X59372553Y50011579D01*
X59248097Y50312042D01*
X59067415Y50582451D01*
X58849866Y50800000D01*
X59067415Y51017549D01*
X59248097Y51287958D01*
X59372553Y51588421D01*
X59436000Y51907391D01*
X59436000Y52232609D01*
X59372553Y52551579D01*
X59248097Y52852042D01*
X59086425Y53094000D01*
X59253249Y53094000D01*
X59309000Y53088509D01*
X59364751Y53094000D01*
X59364752Y53094000D01*
X59531499Y53110423D01*
X59745447Y53175324D01*
X59942623Y53280716D01*
X60115449Y53422551D01*
X60150995Y53465864D01*
X60914132Y54229000D01*
X61122609Y54229000D01*
X61441579Y54292447D01*
X61742042Y54416903D01*
X62012451Y54597585D01*
X62238000Y54823134D01*
X62238000Y51270133D01*
G36*
X68138748Y45099142D02*
G01*
X68124605Y45085000D01*
X68937774Y44271831D01*
X69181754Y44343426D01*
X69302664Y44598954D01*
X69350001Y44787793D01*
X69350000Y42837667D01*
X69324950Y42963603D01*
X69216769Y43224775D01*
X69059715Y43459823D01*
X68859823Y43659715D01*
X68626068Y43815905D01*
X68686574Y43848246D01*
X68758169Y44092226D01*
X67945000Y44905395D01*
X67131831Y44092226D01*
X67203426Y43848246D01*
X67267744Y43817812D01*
X67265225Y43816769D01*
X67030177Y43659715D01*
X66830285Y43459823D01*
X66675000Y43227422D01*
X66519715Y43459823D01*
X66319823Y43659715D01*
X66087422Y43815000D01*
X66319823Y43970285D01*
X66519715Y44170177D01*
X66675905Y44403932D01*
X66708246Y44343426D01*
X66952226Y44271831D01*
X67765395Y45085000D01*
X67751253Y45099142D01*
X67930858Y45278747D01*
X67945000Y45264605D01*
X67959143Y45278747D01*
X68138748Y45099142D01*
X68138748Y45099142D01*
G37*
X68138748Y45099142D02*
X68124605Y45085000D01*
X68937774Y44271831D01*
X69181754Y44343426D01*
X69302664Y44598954D01*
X69350001Y44787793D01*
X69350000Y42837667D01*
X69324950Y42963603D01*
X69216769Y43224775D01*
X69059715Y43459823D01*
X68859823Y43659715D01*
X68626068Y43815905D01*
X68686574Y43848246D01*
X68758169Y44092226D01*
X67945000Y44905395D01*
X67131831Y44092226D01*
X67203426Y43848246D01*
X67267744Y43817812D01*
X67265225Y43816769D01*
X67030177Y43659715D01*
X66830285Y43459823D01*
X66675000Y43227422D01*
X66519715Y43459823D01*
X66319823Y43659715D01*
X66087422Y43815000D01*
X66319823Y43970285D01*
X66519715Y44170177D01*
X66675905Y44403932D01*
X66708246Y44343426D01*
X66952226Y44271831D01*
X67765395Y45085000D01*
X67751253Y45099142D01*
X67930858Y45278747D01*
X67945000Y45264605D01*
X67959143Y45278747D01*
X68138748Y45099142D01*
M02*
