M48
; DRILL file {KiCad (5.1.0)-1} date 20/05/2020 17:07:35
; FORMAT={-:-/ absolute / inch / decimal}
; #@! TF.CreationDate,2020-05-20T17:07:35+01:00
; #@! TF.GenerationSoftware,Kicad,Pcbnew,(5.1.0)-1
FMAT,2
INCH
T1C0.0157
T2C0.0197
T3C0.0315
T4C0.0320
T5C0.0394
T6C0.1969
%
G90
G05
T1
X1.545Y1.7
X1.61Y1.5
X1.62Y2.2
X1.675Y2.195
X1.82Y2.3
X2.045Y1.625
X2.38Y1.51
X2.775Y1.605
T3
X1.9Y2.55
X2.2Y2.55
X1.905Y2.2
X2.205Y2.2
X2.4Y2.2
X2.7Y2.2
X1.85Y1.8
X2.05Y1.8
X2.3Y1.8106
X2.3Y1.2791
X2.4Y2.55
X2.7Y2.55
X2.025Y3.425
X2.025Y3.125
T4
X2.65Y2.825
X2.65Y2.725
X2.275Y2.05
X2.275Y1.95
X1.9Y2.045
X1.9Y1.945
X2.65Y2.05
X2.65Y1.95
X1.85Y1.625
X1.85Y1.525
X1.85Y1.425
X1.85Y1.325
X2.15Y1.625
X2.15Y1.525
X2.15Y1.425
X2.15Y1.325
X2.275Y2.425
X2.275Y2.325
X2.275Y2.825
X2.275Y2.725
X1.9Y2.825
X1.9Y2.725
T5
X2.475Y1.775
X2.475Y1.675
X2.575Y1.775
X2.575Y1.675
X2.675Y1.775
X2.675Y1.675
X1.875Y3.425
X1.875Y3.055
T2
G00X2.3598Y3.45
M15
G01X2.3402Y3.45
M16
G05
G00X2.3598Y3.3
M15
G01X2.3402Y3.3
M16
G05
G00X2.3598Y2.95
M15
G01X2.3402Y2.95
M16
G05
T6
G00X1.15Y3.2283
M15
G01X1.15Y3.1102
M16
G05
G00X1.15Y1.5354
M15
G01X1.15Y1.6535
M16
G05
T0
M30
