M48
; DRILL file {KiCad (5.1.0)-1} date 14/07/2020 19:56:55
; FORMAT={-:-/ absolute / inch / decimal}
; #@! TF.CreationDate,2020-07-14T19:56:55+01:00
; #@! TF.GenerationSoftware,Kicad,Pcbnew,(5.1.0)-1
FMAT,2
INCH
T1C0.0197
T2C0.0315
T3C0.0320
T4C0.0394
T5C0.1969
%
G90
G05
T2
X-0.225Y0.95
X0.075Y0.95
X-0.725Y-0.675
X-0.425Y-0.675
X0.3722Y-0.825
X0.9031Y-0.825
X-0.225Y0.7
X0.075Y0.7
X-0.225Y0.825
X0.075Y0.825
X-0.725Y-0.825
X-0.425Y-0.825
X-0.825Y1.0
X-0.825Y0.8
T3
X-0.05Y1.5748
X0.05Y1.5748
X1.0782Y1.1489
X1.1489Y1.0782
X-0.675Y1.0
X-0.675Y0.9
X-0.675Y0.8
X-0.675Y0.7
X-0.375Y1.0
X-0.375Y0.9
X-0.375Y0.8
X-0.375Y0.7
X1.5748Y0.05
X1.5748Y-0.05
X-0.05Y-1.5748
X0.05Y-1.5748
X-1.5748Y0.05
X-1.5748Y-0.05
X-1.1489Y1.0782
X-1.0782Y1.1489
X1.0782Y-1.1489
X1.1489Y-1.0782
X-1.1489Y-1.0782
X-1.0782Y-1.1489
T4
X0.375Y-0.675
X0.745Y-0.675
X-0.15Y1.225
X-0.15Y1.125
X-0.05Y1.225
X-0.05Y1.125
X0.05Y1.225
X0.05Y1.125
T1
G00X-0.275Y-0.9098
M15
G01X-0.275Y-0.8902
M16
G05
G00X0.075Y-0.9098
M15
G01X0.075Y-0.8902
M16
G05
G00X0.225Y-0.9098
M15
G01X0.225Y-0.8902
M16
G05
T5
G00X-0.8539Y0.01
M15
G01X-0.7357Y0.01
M16
G05
G00X0.8391Y0.01
M15
G01X0.7209Y0.01
M16
G05
T0
M30
